<svg xmlns="http://www.w3.org/2000/svg" xmlns:xlink="http://www.w3.org/1999/xlink" width="139" height="139" viewBox="0 0 139 139">
  <defs>
    <clipPath id="clip-path">
      <rect id="Rectángulo_401159" data-name="Rectángulo 401159" width="139" height="139" fill="#fff"/>
    </clipPath>
  </defs>
  <g id="Grupo_1100069" data-name="Grupo 1100069" transform="translate(-416 -542.905)">
    <g id="Grupo_1099776" data-name="Grupo 1099776" transform="translate(261.43 -5576.346)">
      <g id="Grupo_1099585" data-name="Grupo 1099585" transform="translate(154.57 6119.251)">
        <g id="Grupo_1099584" data-name="Grupo 1099584" transform="translate(0 0)" clip-path="url(#clip-path)">
          <path id="Trazado_873472" data-name="Trazado 873472" d="M39.713,27.544l.541.241c-.339.349-.65.625-.906.947s-.478.713-.713,1.071a.905.905,0,0,0,1.3.133,28.939,28.939,0,0,1,3.479-2.353,15.406,15.406,0,0,0,2.51-1.543c.572-.485,1.3-.669,1.823-1.191a.325.325,0,0,1,.225-.113,1.067,1.067,0,0,0,1.079-.414c.146-.173.341-.141.52.006.309.253.568.185.847-.1a1.315,1.315,0,0,1,1.643-.286c-.031.471-.031.471-.486.79a2.028,2.028,0,0,0-.394-.167.621.621,0,0,0-.67.8c.091.265.281.19.48.125a14.615,14.615,0,0,1,1.73-.519c1.121-.215,2.255-.366,3.384-.544q1.855-.293,3.709-.587a28.018,28.018,0,0,1,4.435-.474c3.13.009,6.26-.029,9.39-.051a1.641,1.641,0,0,0,.639-.057A5.9,5.9,0,0,1,76.35,23c.216-.017.418-.232.683-.391.245.258.743-.364,1.043.161-.217.414-.807-.089-.925.523a2.147,2.147,0,0,0,.471.271,11.324,11.324,0,0,0,3.561.564c2.133-.08,4.269-.093,6.4-.1a15.2,15.2,0,0,1,3.761.489c.812.2,1.644.321,2.464.5a2.3,2.3,0,0,1,.588.242c.19.1.356.251.545.355a3.439,3.439,0,0,1,1.4,1.316,1.372,1.372,0,0,0,.91.681,1.418,1.418,0,0,1,.573.284,7.47,7.47,0,0,0,1.837,1.192,7.337,7.337,0,0,1,1.293.831,19.114,19.114,0,0,0,1.985,1.206c.867.472,1.758.9,2.637,1.348a1.277,1.277,0,0,1,.377.249,1.3,1.3,0,0,0,1.053.42,1.469,1.469,0,0,1,1.114.569,6.789,6.789,0,0,0,.642.527,1.967,1.967,0,0,1,.218.139,37.337,37.337,0,0,0,3.272,2.448.768.768,0,0,0,.736.24c0-.15.011-.3,0-.439-.032-.328-.106-.655-.109-.982a1.481,1.481,0,0,1,1.5-1.556,4.022,4.022,0,0,1,2.252.431,6.991,6.991,0,0,0,1.566.541.994.994,0,0,1,.185.057c.711.408,1.42.821,2.131,1.231.316.182.622.387.953.537a18.371,18.371,0,0,1,2.824,1.944,20.548,20.548,0,0,1,3.314,3.207c.131.145.272.28.412.415a8.491,8.491,0,0,1,1.5,2.044,8.628,8.628,0,0,0,.964,1.314,21.538,21.538,0,0,1,2.587,4.161,18.17,18.17,0,0,1,.972,2.131c.271.762.429,1.566.633,2.353a6.717,6.717,0,0,0,.188.766,9.238,9.238,0,0,1,.389,2.531,1.352,1.352,0,0,1-.017.395c-.089.441-.421.58-.762.3a1.939,1.939,0,0,1-.414-.5c-.406-.672-.781-1.363-1.2-2.029a28.6,28.6,0,0,0-2.146-3.2c-.957-1.156-1.842-2.374-2.747-3.575-.379-.5-.724-1.033-1.1-1.543a2.886,2.886,0,0,0-.333-.3,4.055,4.055,0,0,1-.488-.511,3.557,3.557,0,0,0-1.512-1.363c-.208-.087-.346-.37-.494-.581-.16-.228-.292-.475-.395-.645l-1.1.208a.979.979,0,0,0,.73.833c.153.046.362.11.422.23a15.262,15.262,0,0,0,1.75,2.182c.638.855,1.337,1.664,1.96,2.53.814,1.131,1.619,2.271,2.353,3.457s1.383,2.425,2.05,3.652a.721.721,0,0,1-.061.9c-.062-.006-.129.006-.143-.016a12.7,12.7,0,0,1-1.256-1.8,3.066,3.066,0,0,0-1.49-1.747,9.976,9.976,0,0,1-1.015-.64s-.055-.017-.085,0c-.47.321-.642.291-1.018-.126-.144-.16-.176-.484-.6-.4a3.806,3.806,0,0,0,.24.641,7.528,7.528,0,0,1,.611.9c.261.641.439,1.316.663,1.973.175.514.379,1.017.547,1.533a5.671,5.671,0,0,0,.686,1.628,1.846,1.846,0,0,1,.179.56c.085.294.083.295.464.53a.433.433,0,0,0-.107.61,8.475,8.475,0,0,1,.5,1.339q.368,1.125.709,2.26a7.308,7.308,0,0,1,.228.952,6.716,6.716,0,0,0,.734,2.572,1.447,1.447,0,0,0,.261.375,3.638,3.638,0,0,1,.977,2.035c.241.844.436,1.7.715,2.533.3.89.677,1.752,1.011,2.63a16.07,16.07,0,0,1,.834,3.927.831.831,0,0,1-.062.514,1.612,1.612,0,0,0-.165,1.2c.1.794-.05.97-.894,1.059a2.682,2.682,0,0,0-.037.471c.137,1.514.287,3.026.425,4.54.052.57.07,1.144.128,1.713a3.462,3.462,0,0,1-.062,1.557,4.947,4.947,0,0,0-.125,1.441.506.506,0,0,0,.411.587c.424.075.542.39.582.764.016.153.015.308.021.462.043,1.1.123,2.2.119,3.3,0,1.211-.08,2.421-.133,3.632-.019.44-.043.882-.094,1.319-.04.347-.12.69-.191,1.033a5.35,5.35,0,0,0-.168.705,10.091,10.091,0,0,1-1.255,3.857,3.024,3.024,0,0,0-.226.546,3.564,3.564,0,0,1-1.117,1.507c-.369.369-.672.223-.7-.3a.726.726,0,0,0-.363-.652c-.889-.512-.8-1.385-.747-2.2.058-.854.229-1.7.34-2.55a5.159,5.159,0,0,0,0-.624l-.581-.036c-.035-.049-.088-.094-.08-.118a4.113,4.113,0,0,1,.636-1.57,4.233,4.233,0,0,0,.894-2.229,13.768,13.768,0,0,0,.258-2.622,1.242,1.242,0,0,1,.306-.98.616.616,0,0,0,.1-.679,3.079,3.079,0,0,1,.028-1.617,6.22,6.22,0,0,0,.085-2.709l-.766.559a.773.773,0,0,1-.38-.785c0-.571.045-1.143.1-1.712a2.617,2.617,0,0,0-.43-2,4.687,4.687,0,0,1-.576-1.524c-.08-.28-.151-.5-.494-.525-.289.212-.215.544-.225.836-.034.947-.009,1.9-.088,2.842-.1,1.227-.231,2.457-.444,3.668-.232,1.319-.659,2.6-.845,3.928-.209,1.493-.753,2.885-1.054,4.347a13.507,13.507,0,0,1-.648,1.865c-.308.846-.616,1.691-.939,2.531-.244.634-.491,1.269-.777,1.884-.537,1.159-1.08,2.316-1.662,3.453-.526,1.027-1.07,2.048-1.671,3.03-.784,1.28-1.692,2.484-2.439,3.786a36.394,36.394,0,0,0-2.523,4.587,29.469,29.469,0,0,1-1.536,2.814c-1.009,1.9-2.369,3.555-3.552,5.333-.192.288-.458.524-.668.8s-.391.573-.583.861a1.659,1.659,0,0,1-.137.22c-.9.969-1.795,1.953-2.725,2.9a22.321,22.321,0,0,1-1.881,1.7,28.109,28.109,0,0,1-2.448,1.8,5.963,5.963,0,0,1-1.808.843,2.745,2.745,0,0,0-1.672,1.044,1.718,1.718,0,0,1-.354.293l-.1-.09.229-.547a1.959,1.959,0,0,0-.476-.18,2.169,2.169,0,0,1-1.108-.492c-.49-.366-.483-.8.074-1.1.417-.226.867-.388,1.3-.583a2.4,2.4,0,0,0,1.275-1.034,8.005,8.005,0,0,0-2.005.584q-1.245.448-2.488.9-2.946,1.089-5.891,2.185-2.461.915-4.921,1.834a8.553,8.553,0,0,0-.848.318,11.726,11.726,0,0,1-3.837.835c-1.025.135-2.041.341-3.063.505-.508.081-1.02.138-1.531.209-.725.1-1.449.2-2.173.3a3.924,3.924,0,0,1-.768.1,18.127,18.127,0,0,0-3.352.232c-1.049.127-2.1.229-3.157.282a5.411,5.411,0,0,1-1.331-.179c-1.142-.235-2.28-.486-3.417-.742-.758-.171-1.509-.377-2.27-.54a5.229,5.229,0,0,0-1.341-.182,21.368,21.368,0,0,1-2.6-.252,10.481,10.481,0,0,1-3.507-.785,4.069,4.069,0,0,0-1.665-.465,9.154,9.154,0,0,1-1.954-.544,2.186,2.186,0,0,1-1.019-.332c-.117-.1-.408,0-.609.051A1.655,1.655,0,0,1,45.1,140.8a2.156,2.156,0,0,1-1.4.11.32.32,0,0,1-.2-.156,1.455,1.455,0,0,1-.086-.332.773.773,0,0,1,.289-.035.789.789,0,0,0,.418.085,2.078,2.078,0,0,0-.186-.186,1.337,1.337,0,0,1-.625-.863c-.028-.181-.2-.337-.295-.482-.637.2-.2,1.019-.86,1.171-.277-.17-.506-.533-.943-.529-.073,0-.252-.345-.206-.424.3-.524-.058-.921-.2-1.36a.469.469,0,0,0-.245-.3,2.49,2.49,0,0,1-.01.545c-.03.13-.131.312-.233.338a.452.452,0,0,1-.363-.184,1.535,1.535,0,0,1-.162-.444l-.909-.437c-.043-.245-.08-.458-.126-.726a.712.712,0,0,1-.9-.117c-.2-.173-.347-.051-.47.239l1.151.415c.015.312.116.687-.322.912a.862.862,0,0,1-.353-.871c-.262-.085-.409-.087-.462.247-.071.45-.193.5-.759.376l.613-.912-.677.155c-.189-.266-.038-.771-.594-.794-.187.133-.388.506-.818.126a7.768,7.768,0,0,1,.491-.63.322.322,0,0,0,.035-.5,1.924,1.924,0,0,1-.169-.617l-.455-.057c.053-.051.194-.13.229-.243.021-.066-.112-.24-.207-.272a3.88,3.88,0,0,0-.748-.16c-.248-.033-.628.339-.513.539.25.432-.063.737-.1,1.116-.393-.228-.322-.611-.383-.947s-.134-.672.3-.782c-.255-.527-.362-.624-1.176-1.1a1.43,1.43,0,0,0-.374.215c-.138.145-.145.293.085.4a2.484,2.484,0,0,1,.435.355l-.673.409-.5-1.43.6.034c0-.127.036-.292-.005-.315a2.494,2.494,0,0,1-.828-.872c-.1-.144-.411-.135-.693-.215l.1-.5a.812.812,0,0,1-.875-.588.831.831,0,0,1,.018-.748.752.752,0,0,0-.034-.81c-.358-.6-.747-1.179-1.134-1.76-.054-.082-.164-.126-.3-.223a1.568,1.568,0,0,0-.216.4,5.548,5.548,0,0,0-.1.918.758.758,0,0,0,.142.414c.223.32.483.614.708.932.491.694.46.991-.178,1.726-.442-.282-.892-.4-1.191.175.164.426.326.829.473,1.238a.708.708,0,0,0,.513.443c.425.144.444.264.193.757a3.37,3.37,0,0,1-.289-.228c-.108-.106-.182-.268-.307-.333a1.745,1.745,0,0,1-.946-2.116c.107-.539-.208-.812-.99-.858a3.525,3.525,0,0,0,.165.4,4.365,4.365,0,0,0,.268.377c-.19.207-.368.211-.523.049a2.462,2.462,0,0,1-.921-1.448c-.039-.386-.254-.479-.862-.48a5.9,5.9,0,0,0-1.72-1.965,53.863,53.863,0,0,1-4.376-3.456c-.76-.8-1.491-1.632-2.226-2.457-.477-.536-.969-1.061-1.4-1.634-.77-1.028-1.512-2.079-2.24-3.138-.556-.808-1.11-1.621-1.6-2.472Q9.519,111.9,8.46,109.83a3.5,3.5,0,0,1-.5-1.758,1.055,1.055,0,0,0-.1-.512,23.105,23.105,0,0,1-1.335-3.837,8.1,8.1,0,0,1-.355-1.057,16.26,16.26,0,0,1-.14-1.69c0-.058.1-.122.18-.217l2.48,4.435a2.708,2.708,0,0,0,.192-.589c.01-.329-.041-.66-.032-.989.011-.423.2-.547.588-.412.183.064.358.157.544.212.326.095.441.017.493-.31a.924.924,0,0,0,.008-.263c-.18-1.394-.439-2.775-.494-4.189-.042-1.074-.275-2.14-.325-3.214-.044-.943.055-1.891.077-2.838.015-.616.02-1.232,0-1.847a5.571,5.571,0,0,0-.739-2.092,20.5,20.5,0,0,1-.846-2.2c-.169-.532-.168-.638-.529-.945a.749.749,0,0,0-.09,1.008,1.148,1.148,0,0,1-.049,1.5,2.816,2.816,0,0,0-.241.491,3.53,3.53,0,0,0,.384.263c.427.216.547.427.42.872a7.811,7.811,0,0,1-.342.813,2.624,2.624,0,0,1-.284-.477c-.212-.76-.409-1.524-.611-2.287a.725.725,0,0,0-.072-.251,2.777,2.777,0,0,1-.383-1.442,7.118,7.118,0,0,0-.436-2.191,2.131,2.131,0,0,1-.073-.65c-.015-.128,0-.3-.071-.375-.422-.441-.349-1.026-.441-1.552-.114-.649-.161-1.312-.211-1.971a.711.711,0,0,0-.36-.651.746.746,0,0,1-.346-.958A1.341,1.341,0,0,1,4.5,77.34a1.308,1.308,0,0,0-.112-1.369.828.828,0,0,1-.041-.81.725.725,0,0,0,.036-.505,4.73,4.73,0,0,1-.087-1.89c-.006-.835-.028-1.67-.027-2.505a5.122,5.122,0,0,1,.323-2.386,5.819,5.819,0,0,0,.3-1.143,3.4,3.4,0,0,1,.131-.342,1.918,1.918,0,0,1,.49.93,20.042,20.042,0,0,1,.774,3.394,8.7,8.7,0,0,1,.083.918c.071.61.158,1.218.228,1.828.076.656.147,1.313.208,1.971a.92.92,0,0,0,.364.807c.206-.671.388-1.363,1.2-1.592.457.361.279,1.048.6,1.662a2.063,2.063,0,0,0,.254-.523c.106-.983.2-1.968.273-2.954a2.114,2.114,0,0,0-.137-.568,7.472,7.472,0,0,1-.284-1.339c-.049-1.322-.048-2.645-.041-3.968,0-.3.13-.6.151-.906.019-.273.071-.634-.068-.811a2.84,2.84,0,0,1-.454-1.627A8.538,8.538,0,0,1,8.724,61.9a3.007,3.007,0,0,1,.488-1.42,6.137,6.137,0,0,0,.332-.713,3.658,3.658,0,0,1,.408-.668.421.421,0,0,1,.383-.117c.1.045.163.229.207.364.024.073-.03.171-.038.258a2.28,2.28,0,0,0,.42,1.689.975.975,0,0,1,.069,1.157,1.42,1.42,0,0,0-.185.619,4.531,4.531,0,0,1-.6,1.992,4.292,4.292,0,0,0-.021,2.7,2.82,2.82,0,0,0,.409-.486,2.958,2.958,0,0,0,.179-.631c.24-1.162.473-2.326.709-3.489.123-.6.243-1.206.373-1.807.29-1.332.556-2.671.889-3.991.251-.994.574-1.971.9-2.944s.68-1.951,1.043-2.918c.424-1.128.807-2.28,1.327-3.362a30.6,30.6,0,0,1,1.9-3.362c.852-1.317,1.746-2.614,2.722-3.836.757-.948,1.669-1.767,2.508-2.647.495-.519,1-1.033,1.469-1.574a3.869,3.869,0,0,1,1.528-1.281c.205-.075.358-.307.527-.477.308-.308.6-.636.917-.933.474-.444.773-.356.963.259a1.8,1.8,0,0,0,.1.239c.008.016.034.024.095.063a2.258,2.258,0,0,0,1.1-.8A7.272,7.272,0,0,1,33.417,31.3a6.618,6.618,0,0,0,1.543-.932c.371-.25.855-.277,1.169-.65.052-.062.286,0,.413.051a.9.9,0,0,0,1.019-.207c.429-.392.816-.831,1.252-1.284l-.391-.461c.6-.278.943-.888,1.634-1.057l-.327.8a1.494,1.494,0,0,0-.369.065c-.079.035-.178.139-.178.213a.251.251,0,0,0,.443.131,1.61,1.61,0,0,0,.087-.427m88.751,45.32a1.318,1.318,0,0,0,.28-1.2,14.253,14.253,0,0,0-.574-3.038,1.545,1.545,0,0,1-.026-1.161,1.823,1.823,0,0,0-.169-1.583c-.082-.154-.221-.31-.223-.467a6.282,6.282,0,0,0-.475-1.689,10.4,10.4,0,0,0-.937-2.164c-.394-.7-.828-1.385-1.216-2.091-.343-.625-.61-1.295-.978-1.9-.608-1-1.268-1.974-1.911-2.955-.251-.383-.5-.764-.776-1.132a1.663,1.663,0,0,0-.919-.733c.069.24.1.395.157.539.087.223.182.443.289.656.163.326.338.647.512.968a7.677,7.677,0,0,1,.462.857c.248.647.412,1.331.694,1.96.348.776.779,1.514,1.179,2.266a36.831,36.831,0,0,1,2.268,5.025c.343.971.777,1.913,1.065,2.9.436,1.495.78,3.018,1.165,4.529.026.1.064.2.134.415M24.187,122.989a1.443,1.443,0,0,0-.535-1.729,3.972,3.972,0,0,1-1.785-1.915,4.489,4.489,0,0,0-.8-1.1,4.613,4.613,0,0,0-1.487-1.22,5.954,5.954,0,0,0,.516,1.162c.368.62.786,1.208,1.146,1.833.282.488.454,1.049.769,1.511a18.274,18.274,0,0,0,2.148,2.864c.631.621,1.163,1.345,1.746,2.017.207.238.436.455.709.739a11.1,11.1,0,0,0-2.431-4.16M129.267,75.65a5.124,5.124,0,0,0-.042.823c.14,1.158.292,2.314.466,3.467a2.42,2.42,0,0,0,.286.615c.629-.463.745-.751.527-1.256a11.165,11.165,0,0,1-.87-3.026.7.7,0,0,0-.367-.623M7.95,83.478c-.047-.949-.086-1.773-.129-2.6a.427.427,0,0,0-.293-.422c-.047.035-.072.043-.08.06a3.741,3.741,0,0,0,.045,2.621c.031.117.242.185.457.337M90.984,25.322a7.934,7.934,0,0,0,1.192.465,2.508,2.508,0,0,1,1.009.377.83.83,0,0,0,1.04,0,7.2,7.2,0,0,0-.679-.426c-.619-.3-1.349-.232-1.945-.637-.156-.106-.417-.1-.617.222m37.808,41.565a.821.821,0,0,0,.157.939c.227-.524.215-.593-.157-.939M45.065,139.744c-.385.239-.4.3-.18.763.289-.31.29-.31.18-.763m-12.055-7.29c-.037.523.457.384.583.758.071-.529.063-.537-.583-.758m-5.5-6.867a.622.622,0,0,0,.257.842c.142-.359.156-.62-.257-.842M128.993,74.438c.113-.319.2-.518-.1-.694-.161.238-.131.417.1.694M36.967,135.969c-.077-.34-.143-.567-.534-.507.045.3.178.449.534.507" transform="translate(-2.611 -14.26)" fill="#fff"/>
          <path id="Trazado_873473" data-name="Trazado 873473" d="M85.85,15.459c-.16-.012-.29-.017-.418-.032-.643-.071-.908-.41-.813-1.073a2.077,2.077,0,0,1,.77-1.336c.669-.548,1.371-1.057,2.016-1.633A28.562,28.562,0,0,1,91,8.962a14.98,14.98,0,0,1,3.448-1.745,17.925,17.925,0,0,0,1.639-.757,12.759,12.759,0,0,1,1.247-.509c.735-.24,1.48-.446,2.222-.661.249-.072.5-.129.753-.188a.863.863,0,0,1,.376-.064.513.513,0,0,1,.334.247.443.443,0,0,1-.145.381c-.33.243-.686.451-1.036.665a13.362,13.362,0,0,1-2,1.174c-.529.206-.949.569-1.462.789a7.366,7.366,0,0,0-1.469.936c-.638.48-1.241,1.008-1.865,1.506a2.3,2.3,0,0,1-.348.16,2.914,2.914,0,0,0-.664.393,26.387,26.387,0,0,1-3.476,2.565c-.331.232-.6.551-.938.777-.552.373-1,1-1.766.83" transform="translate(-54.479 -3.083)" fill="#fff"/>
          <path id="Trazado_873474" data-name="Trazado 873474" d="M344.12,265.859c-.181-.217-.4-.365-.439-.551a1.642,1.642,0,0,1,.014-1.007,10.7,10.7,0,0,0,1.081-2.922,25.123,25.123,0,0,1,.962-2.712c.052-.144.136-.277.174-.423a.641.641,0,0,1,.517-.528.71.71,0,0,0,.634-.786c-.019-.52.339-.79.6-1.119.182-.229.421-.143.548.145a.861.861,0,0,1-.086.934,2.422,2.422,0,0,0-.45,1.484c-.01.22-.043.44-.039.659a13.212,13.212,0,0,1-.691,4.075c-.229.748-.4,1.515-.6,2.272-.062.232-.168.454-.214.688a3.71,3.71,0,0,0-.135,1.03,1.149,1.149,0,0,1-.475,1.2,3.345,3.345,0,0,0-.587.692,3.332,3.332,0,0,1-.363.462.6.6,0,0,1-1.059-.37,3.438,3.438,0,0,0-.323-1.192.884.884,0,0,1,.142-.933c.246-.356.507-.7.792-1.095" transform="translate(-221.328 -162.973)" fill="#fff"/>
          <path id="Trazado_873475" data-name="Trazado 873475" d="M181.7,17.6a.615.615,0,0,1-.476-.651,5.259,5.259,0,0,1,.046-.857A1.733,1.733,0,0,0,181.167,15c-.191-.414-.063-.612.372-.68a29.186,29.186,0,0,1,6.763-.209,6.444,6.444,0,0,0,.7-.021,1.025,1.025,0,0,1,.315,0,20.009,20.009,0,0,0,3.519.393,1.666,1.666,0,0,0,1.056-.221,1.262,1.262,0,0,1,1.54.667.508.508,0,0,1-.511.663c-1.007.009-2.015-.019-3.021.014a11.193,11.193,0,0,0-1.4.214c-1.02.165-2.036.384-3.062.474a4.268,4.268,0,0,0-1.212.274,2.786,2.786,0,0,1-.96.079,3.141,3.141,0,0,0-1.448.267,1.946,1.946,0,0,1-.881.168c-.493-.009-.947.016-1.231.52" transform="translate(-116.752 -8.812)" fill="#fff"/>
          <path id="Trazado_873476" data-name="Trazado 873476" d="M152.217,6.519l.489-.681a.8.8,0,0,0-.813-.005,14.473,14.473,0,0,1-3.273.962.855.855,0,0,1-1.006-.852,1.513,1.513,0,0,1,.249-.918,2.99,2.99,0,0,1,1.642-.977c.9-.2,1.8-.446,2.691-.676.229-.059.452-.157.684-.193,1.468-.228,2.934-.466,4.407-.654.637-.081,1.288-.054,1.933-.075a.551.551,0,0,1,.595.349c-.19.431-.571.461-.963.415a.568.568,0,0,0-.58.171,5.385,5.385,0,0,1-2.367,1.4c-.078.03-.16.054-.32.108.747.348,1.4-.071,2.075-.042.151.269.049.448-.188.52a5.883,5.883,0,0,1-1.123.256,3.832,3.832,0,0,0-1.41.367,9.731,9.731,0,0,1-2.032.605,2.3,2.3,0,0,1-.689-.078m2.264-1.3c0,.041,0,.082,0,.123l.365-.039-.011-.113-.353.029" transform="translate(-95.15 -1.437)" fill="#fff"/>
          <path id="Trazado_873477" data-name="Trazado 873477" d="M201.345,7.858a.764.764,0,0,1-.791.377,4.627,4.627,0,0,0-.579-.02c-.279.024-.5.124-.484.484.012.216-.059.4-.307.424a.487.487,0,0,1-.522-.308c-.067-.151-.148-.3-.266-.528a2.367,2.367,0,0,0-.248.374.468.468,0,0,1-.49.331c-1.485.06-2.968.159-4.452.206a3.643,3.643,0,0,1-1.137-.188.539.539,0,0,1-.439-.576,1,1,0,0,1,.387-.557,1.478,1.478,0,0,1,.667-.209c.96-.117,1.922-.217,2.885-.312a14.688,14.688,0,0,1,3.22-.115c.531.064,1.075.017,1.612.043a1.069,1.069,0,0,1,.943.575" transform="translate(-123.556 -4.459)" fill="#fff"/>
          <path id="Trazado_873478" data-name="Trazado 873478" d="M76.056,339.706l-1.143-.413c-.3-.11-.6-.228-.907-.331a4.956,4.956,0,0,1-2.446-2.152,5.23,5.23,0,0,1-.484-.853.633.633,0,0,1,.114-.79.862.862,0,0,1,.728-.065,18.77,18.77,0,0,1,2.615,1.252,11.741,11.741,0,0,1,1.509,1.19,2.492,2.492,0,0,1,.731,1.642c.039.34-.217.49-.718.521" transform="translate(-45.697 -213.603)" fill="#fff"/>
          <path id="Trazado_873479" data-name="Trazado 873479" d="M2.809,213.847c.034.656.071,1.312.1,1.968.016.322.1.661-.213.966a1.836,1.836,0,0,1-.362-.213c-.583-.551-1.152-1.082-1-2.051a3.632,3.632,0,0,0-.306-1.389,11.51,11.51,0,0,1-.65-2.8c-.007-.805-.209-1.607-.3-2.414a4.327,4.327,0,0,1-.015-1.6c.142.184.257.275.294.392.123.4.2.807.329,1.2.195.58.44,1.143.631,1.724.245.746.457,1.5.693,2.29l.574.1a1.516,1.516,0,0,1-.04.335c-.223.6-.176.727.421.949.243.09.384.25.3.493s-.3.174-.481.067l-.135-.232-.069.068.223.148" transform="translate(0.125 -131.481)" fill="#fff"/>
          <path id="Trazado_873480" data-name="Trazado 873480" d="M379.646,145.954a1.926,1.926,0,0,1-.19-.4c-.087-.586-.16-1.175-.238-1.762-.017-.131-.023-.264-.052-.392-.255-1.134-.529-2.265-.769-3.4-.154-.731-.264-1.471-.388-2.208a1.6,1.6,0,0,1-.006-.33.433.433,0,0,1,.382-.459c.225-.033.358.111.43.319.131.373.265.744.391,1.118.063.187.1.382.165.569a15.775,15.775,0,0,1,.793,5.322,3.5,3.5,0,0,1-.518,1.621" transform="translate(-243.849 -87.267)" fill="#fff"/>
          <path id="Trazado_873481" data-name="Trazado 873481" d="M175.73,370.168c.2-.693.682-.659,1.2-.525.208.053.432.055.633.126.306.109.369.476.093.6a11.316,11.316,0,0,1-1.342.445.336.336,0,0,1-.252-.027c-.776-.51-1.668-.257-2.5-.4a2.473,2.473,0,0,1-.385-.028.969.969,0,0,0-1.078.172c-.066.06-.229.009-.464.009l.584-.4c-.2-.147-.4-.226-.5-.374a.962.962,0,0,1-.144-.59c.011-.093.252-.2.4-.224a1.64,1.64,0,0,1,.579.025,7.931,7.931,0,0,1,2.355.64c.258.14.491.331.812.552" transform="translate(-110.619 -235.22)" fill="#fff"/>
          <path id="Trazado_873482" data-name="Trazado 873482" d="M213.95,378.939c-.279-.016-.561-.014-.837-.054a.808.808,0,0,1-.7-.675.832.832,0,0,1,.48-.835,3.858,3.858,0,0,1,2.426-.51c.38.035.733.106.87.544a.952.952,0,0,1-.409,1.018,2.708,2.708,0,0,1-1.828.511" transform="translate(-136.967 -240.265)" fill="#fff"/>
          <path id="Trazado_873483" data-name="Trazado 873483" d="M154.884,16.9a1.8,1.8,0,0,1-.227.41c-.1.105-.318.123-.377.237-.385.739-1.146.828-1.788,1.122-.019.009-.035.032-.054.034a4.552,4.552,0,0,0-1.4.259c-.195.084-.374-.188-.343-.436a.674.674,0,0,1,.632-.637,4.859,4.859,0,0,0,2.69-.948.74.74,0,0,1,.864-.041" transform="translate(-97.139 -10.578)" fill="#fff"/>
          <path id="Trazado_873484" data-name="Trazado 873484" d="M224.382,7.568l.347.471h.685l-.11.587.545.333c.024.346-.193.414-.438.456-.592.1-1.184.211-1.777.312-.345.059-.481-.107-.362-.459a2.755,2.755,0,0,1,.217-.4,2.448,2.448,0,0,0,.29-.569,1.14,1.14,0,0,1,.6-.732" transform="translate(-143.956 -4.703)" fill="#fff"/>
          <path id="Trazado_873485" data-name="Trazado 873485" d="M16.027,214.754a5.783,5.783,0,0,1-.889-2.88c.012-.114.093-.309.147-.311.126,0,.345.059.369.142a5.69,5.69,0,0,1,.583,2.711c-.015.075-.084.138-.211.338" transform="translate(-9.636 -134.831)" fill="#fff"/>
          <path id="Trazado_873486" data-name="Trazado 873486" d="M211.581,1.421c-.052.4-.227.485-.472.449a2.28,2.28,0,0,1-.5-.121,2.075,2.075,0,0,0-1.446-.007,1.1,1.1,0,0,1-.995-.107c-.122-.083-.323-.04-.485-.069a2.418,2.418,0,0,1-.315-.1.667.667,0,0,1,.05-.11,5.928,5.928,0,0,0,1.721-.287c.084-.01.2-.039.251,0,.482.36,1.031.18,1.551.226a6.061,6.061,0,0,1,.64.125" transform="translate(-133.718 -0.544)" fill="#fff"/>
          <path id="Trazado_873487" data-name="Trazado 873487" d="M233.581,3.86c.4.071.76.131,1.115.2.1.02.24.036.3.108a.705.705,0,0,1,.2.437.522.522,0,0,1-.321.33.883.883,0,0,1-.49-.052c-.183-.056-.351-.164-.53-.237-.468-.19-.481-.222-.272-.786" transform="translate(-150.554 -2.337)" fill="#fff"/>
          <path id="Trazado_873488" data-name="Trazado 873488" d="M370.454,95.668a7.626,7.626,0,0,1-1.208-1.888c.26-.228.494-.168.621.008a9.9,9.9,0,0,1,.78,1.264c.075.144.012.363.012.547l-.2.068" transform="translate(-238.201 -59.603)" fill="#fff"/>
          <path id="Trazado_873489" data-name="Trazado 873489" d="M296.531,48.13c-.077-.014-.179,0-.228-.046-.426-.393-.853-.786-1.258-1.2-.2-.2-.358-.457-.033-.76.813.4,1.02,1.31,1.654,1.85l-.135.157" transform="translate(-190.167 -29.297)" fill="#fff"/>
          <path id="Trazado_873490" data-name="Trazado 873490" d="M365.5,124.227c.151.035.352.02.444.115a2.118,2.118,0,0,1,.429.651c.174.421.3.861.441,1.3.015.046-.033.113-.079.252-.469-.8-1.23-1.342-1.225-2.329Z" transform="translate(-235.78 -79.111)" fill="#fff"/>
          <path id="Trazado_873491" data-name="Trazado 873491" d="M353.214,111.438a2.678,2.678,0,0,1,.363.345,6.984,6.984,0,0,1,.5.824.443.443,0,0,1,0,.391.4.4,0,0,1-.39.03,1.911,1.911,0,0,1-.707-1.2c-.021-.087.13-.217.24-.387" transform="translate(-227.697 -70.961)" fill="#fff"/>
          <path id="Trazado_873492" data-name="Trazado 873492" d="M188.3,2.087a1.96,1.96,0,0,1-.456.028.426.426,0,0,1-.269-.2c-.024-.044.078-.235.137-.243a8.578,8.578,0,0,1,1.273-.091c.092,0,.179.245.268.377a1.455,1.455,0,0,1-.38.166,3.145,3.145,0,0,1-.572-.034" transform="translate(-120.943 -0.881)" fill="#fff"/>
          <path id="Trazado_873493" data-name="Trazado 873493" d="M11.617,155.847a8.823,8.823,0,0,1-.2-1.142.547.547,0,0,1,.264-.44c.214-.067.322.152.365.356.1.453.189.908-.432,1.226" transform="translate(-7.245 -98.273)" fill="#fff"/>
          <path id="Trazado_873494" data-name="Trazado 873494" d="M332.083,293.852c.313.693.192,1.042-.57,1.473-.029-.149-.1-.292-.066-.387.136-.339.309-.663.477-.988.025-.048.1-.066.16-.1" transform="translate(-213.797 -187.324)" fill="#fff"/>
          <path id="Trazado_873495" data-name="Trazado 873495" d="M227.386,3.084c-.495.554-.882.536-1.269-.03.412-.342.805-.247,1.269.03" transform="translate(-145.82 -1.683)" fill="#fff"/>
          <path id="Trazado_873496" data-name="Trazado 873496" d="M133.975,20.277c-.663.278-1.331.139-1.983.566a1.515,1.515,0,0,1,1.983-.566" transform="translate(-85.068 -12.709)" fill="#fff"/>
          <path id="Trazado_873497" data-name="Trazado 873497" d="M192.122,371.544c-.319.447-.711.465-1.195.056a.711.711,0,0,1,1.195-.056" transform="translate(-123.107 -236.694)" fill="#fff"/>
          <path id="Trazado_873498" data-name="Trazado 873498" d="M221.843,2.814c-.376.01-.7-.241-.7-.5a.375.375,0,0,1,.2-.278.612.612,0,0,1,.716.481c0,.119-.165.236-.21.294" transform="translate(-142.608 -1.162)" fill="#fff"/>
          <path id="Trazado_873499" data-name="Trazado 873499" d="M13.959,158.721a5.559,5.559,0,0,1,.02.819.483.483,0,0,1-.259.311.342.342,0,0,1-.329-.081.447.447,0,0,1,.018-.356c.11-.251.252-.488.381-.73l.169.038" transform="translate(-8.498 -101.099)" fill="#fff"/>
          <path id="Trazado_873500" data-name="Trazado 873500" d="M140.712,1.73c-.186.109-.352.22-.53.305a.262.262,0,0,1-.405-.171.393.393,0,0,1,.258-.512c.209-.051.378.034.677.378" transform="translate(-90.078 -0.729)" fill="#fff"/>
          <path id="Trazado_873501" data-name="Trazado 873501" d="M241.093,6.05a.813.813,0,0,1,.923-.337.348.348,0,0,1,.2.279.354.354,0,0,1-.261.232,6.65,6.65,0,0,1-.861-.175" transform="translate(-155.486 -3.502)" fill="#fff"/>
          <path id="Trazado_873502" data-name="Trazado 873502" d="M6.41,190.312c.347.474.346.5-.018.944-.4-.4-.4-.468.018-.944" transform="translate(-3.809 -121.275)" fill="#fff"/>
          <path id="Trazado_873503" data-name="Trazado 873503" d="M142.142,25.725c.046.394-.267.474-.455.651-.3-.187-.235-.362-.109-.538a.354.354,0,0,1,.564-.113" transform="translate(-91.186 -16.224)" fill="#fff"/>
          <path id="Trazado_873504" data-name="Trazado 873504" d="M5.814,217.981c.554.013.69.188.568.754a.932.932,0,0,1-.568-.754" transform="translate(-3.627 -138.926)" fill="#fff"/>
          <path id="Trazado_873505" data-name="Trazado 873505" d="M17.46,241.17c-.407-.476.216-.675.1-1.1l.5.2-.6.892" transform="translate(-11.054 -153.019)" fill="#fff"/>
          <path id="Trazado_873506" data-name="Trazado 873506" d="M385.512,122.442a.645.645,0,0,1,.253.8.242.242,0,0,1-.181.144.235.235,0,0,1-.189-.128c-.048-.27-.135-.556.117-.818" transform="translate(-248.589 -77.981)" fill="#fff"/>
          <path id="Trazado_873507" data-name="Trazado 873507" d="M373.864,100.462a.942.942,0,0,1,.573.632.308.308,0,0,1-.086.275.278.278,0,0,1-.272-.068c-.14-.231-.245-.486-.363-.731l.149-.108" transform="translate(-241.085 -63.96)" fill="#fff"/>
          <path id="Trazado_873508" data-name="Trazado 873508" d="M116.127,29.891c.037-.167.02-.408.122-.485.246-.185.509-.052.782.069-.157.4-.525.31-.72.528Z" transform="translate(-74.828 -18.575)" fill="#fff"/>
          <path id="Trazado_873509" data-name="Trazado 873509" d="M339.23,284.917a.672.672,0,0,1,.094.757.225.225,0,0,1-.438-.032.593.593,0,0,1,.344-.725" transform="translate(-218.595 -181.624)" fill="#fff"/>
          <path id="Trazado_873510" data-name="Trazado 873510" d="M389.571,136.545l-.377.326a1.606,1.606,0,0,1-.27-.443c-.039-.172.07-.387.268-.331.132.037.217.247.378.448" transform="translate(-250.897 -86.686)" fill="#fff"/>
          <path id="Trazado_873511" data-name="Trazado 873511" d="M221.461,8.682c-.1.138-.152.3-.235.317a1.308,1.308,0,0,1-.543-.031c-.042-.01-.08-.262-.064-.269a1.934,1.934,0,0,1,.519-.16c.085-.011.181.077.322.144" transform="translate(-142.269 -5.321)" fill="#fff"/>
          <path id="Trazado_873512" data-name="Trazado 873512" d="M381.077,112.869c-.251-.3-.592-.542-.552-1.01a1.545,1.545,0,0,1,.552,1.01" transform="translate(-245.479 -71.23)" fill="#fff"/>
          <path id="Trazado_873513" data-name="Trazado 873513" d="M357.718,118.506c.407.023.489.245.42.541a.279.279,0,0,1-.229.15c-.233-.028-.293-.264-.191-.691" transform="translate(-230.729 -75.47)" fill="#fff"/>
          <path id="Trazado_873514" data-name="Trazado 873514" d="M89.111,332.855a1.882,1.882,0,0,1,.5.3c.047.052-.086.273-.137.416l-.156.011-.3-.629.1-.1" transform="translate(-57.329 -212.204)" fill="#fff"/>
          <path id="Trazado_873515" data-name="Trazado 873515" d="M75.623,321.81l.573.284-.28.293-.4-.489.107-.088" transform="translate(-48.616 -205.158)" fill="#fff"/>
          <path id="Trazado_873516" data-name="Trazado 873516" d="M147.945,20.175c.165.382.191.6-.047.759a.171.171,0,0,1-.165-.04c-.161-.265.023-.422.212-.719" transform="translate(-95.188 -12.745)" fill="#fff"/>
          <path id="Trazado_873517" data-name="Trazado 873517" d="M381.041,170.649c-.086-.222-.173-.335-.154-.425s.138-.179.213-.268c.069.087.2.18.194.26-.011.116-.122.223-.252.433" transform="translate(-245.713 -108.29)" fill="#fff"/>
          <path id="Trazado_873518" data-name="Trazado 873518" d="M291.109,36.783c-.144.121-.228.246-.317.249s-.168-.125-.254-.194c.076-.083.142-.214.231-.234s.183.091.339.179" transform="translate(-187.4 -23.224)" fill="#fff"/>
          <path id="Trazado_873519" data-name="Trazado 873519" d="M108.777,22.023c.02.3-.032.477-.358.49-.1-.331.078-.417.358-.49" transform="translate(-69.835 -13.923)" fill="#fff"/>
          <path id="Trazado_873520" data-name="Trazado 873520" d="M152.258,0c-.189.337-.353.366-.716.225L152.258,0" transform="translate(-97.686 0.125)" fill="#fff"/>
          <path id="Trazado_873521" data-name="Trazado 873521" d="M196.053,371.579c-.115.1-.185.2-.258.2s-.166-.089-.25-.14c.071-.089.127-.208.218-.254.044-.022.154.1.289.189" transform="translate(-126.087 -236.783)" fill="#fff"/>
          <path id="Trazado_873522" data-name="Trazado 873522" d="M330.1,298.735l-.3.279-.1-.094.255-.32.147.135" transform="translate(-212.676 -190.353)" fill="#fff"/>
          <path id="Trazado_873523" data-name="Trazado 873523" d="M386.839,125.975a.447.447,0,0,1,.255.647c-.291-.146-.3-.339-.255-.647" transform="translate(-249.544 -80.235)" fill="#fff"/>
          <path id="Trazado_873524" data-name="Trazado 873524" d="M364.984,122.818c-.064-.248-.406-.4-.26-.791a.837.837,0,0,1,.251.8l.009-.013" transform="translate(-235.259 -77.716)" fill="#fff"/>
          <path id="Trazado_873525" data-name="Trazado 873525" d="M80.367,334.77c.367.115.455.238.363.429-.024.05-.136.054-.208.08l-.155-.509" transform="translate(-51.747 -213.426)" fill="#fff"/>
          <path id="Trazado_873526" data-name="Trazado 873526" d="M384.353,120.312a3.31,3.31,0,0,1,.168.323c.005.013-.122.1-.127.1-.082-.088-.155-.186-.229-.282l.188-.138" transform="translate(-247.83 -76.622)" fill="#fff"/>
          <path id="Trazado_873527" data-name="Trazado 873527" d="M176.055,11.607c-.088.029-.156.074-.187.055s-.054-.1-.068-.154c0-.007.078-.055.1-.044a.817.817,0,0,1,.154.143" transform="translate(-113.343 -7.187)" fill="#fff"/>
          <path id="Trazado_873528" data-name="Trazado 873528" d="M3.1,204.559a.85.85,0,0,1-.144-.209c-.008-.026.094-.122.107-.114a.408.408,0,0,1,.158.149c.011.02-.06.088-.121.174" transform="translate(-1.78 -130.157)" fill="#fff"/>
          <path id="Trazado_873529" data-name="Trazado 873529" d="M100.87,342.268a.926.926,0,0,1-.228.1c-.023,0-.094-.117-.084-.128a.524.524,0,0,1,.182-.134c.015-.006.066.078.13.158" transform="translate(-64.778 -218.108)" fill="#fff"/>
          <path id="Trazado_873530" data-name="Trazado 873530" d="M111.125,34.106l-.169-.1c.033-.041.063-.112.1-.117s.105.039.158.062l-.09.154" transform="translate(-71.49 -21.494)" fill="#fff"/>
          <path id="Trazado_873531" data-name="Trazado 873531" d="M19.029,233.6l-.122.148-.139-.147c.041-.038.08-.1.125-.105s.08.059.135.1" transform="translate(-11.988 -148.821)" fill="#fff"/>
          <path id="Trazado_873532" data-name="Trazado 873532" d="M198.546,2.453c-.027.027-.055.074-.083.075s-.054-.049-.081-.076c.028-.027.055-.074.084-.075s.053.049.08.076" transform="translate(-127.918 -1.391)" fill="#fff"/>
        </g>
      </g>
    </g>
    <g id="Grupo_1099777" data-name="Grupo 1099777" transform="translate(445 571.904)">
      <g id="Grupo_1099948" data-name="Grupo 1099948" transform="translate(0.39 -0.185)">
        <circle id="Elipse_11542" data-name="Elipse 11542" cx="10.218" cy="10.218" r="10.218" transform="translate(29.006 27.547)" fill="#cadbf3"/>
        <path id="Trazado_873873" data-name="Trazado 873873" d="M70.939,26.788a4.93,4.93,0,0,0-7.6,0l-11.5,12.964a16.885,16.885,0,0,1-12.619,6,16.9,16.9,0,0,1-12.773-6L15.1,26.98a4.977,4.977,0,0,0-7.664,0,6.386,6.386,0,0,0,0,8.2L21.828,52.04A9.017,9.017,0,0,1,23.9,57.787V72.259H54.4V57.787a8.941,8.941,0,0,1,2.056-5.812L70.939,35.014A6.386,6.386,0,0,0,70.939,26.788Z" transform="translate(0 6.378)" fill="#4e5661"/>
        <g id="Grupo_1099947" data-name="Grupo 1099947" transform="translate(13.05 1.995)">
          <path id="Trazado_873874" data-name="Trazado 873874" d="M45.99,10.674a1.277,1.277,0,0,0-1.022-.856l-6.386-.971L35.657,2.742a1.277,1.277,0,0,0-2.325,0L30.472,8.848l-6.386.971a1.265,1.265,0,0,0-.728,2.133l4.662,4.777-1.1,6.757A1.277,1.277,0,0,0,28.8,24.762l5.7-3.078,5.7,3.155a1.283,1.283,0,0,0,1.878-1.354l-1.1-6.757,4.662-4.777A1.277,1.277,0,0,0,45.99,10.674Z" transform="translate(-8.32 -1.995)" fill="#ffe7ae"/>
          <path id="Trazado_873875" data-name="Trazado 873875" d="M23.836,17.591l-2.555-1.814V12.762a1.277,1.277,0,0,0-2.031-1.009l-2.325,1.66-2.861-1.035a1.277,1.277,0,0,0-1.635,1.635l.983,2.912-1.66,2.325a1.277,1.277,0,0,0,1.009,2.031h3.014l1.814,2.555a1.277,1.277,0,0,0,1.035.536h.217a1.277,1.277,0,0,0,1.009-.907l.8-2.784L23.44,19.8a1.277,1.277,0,0,0,.4-2.261Z" transform="translate(-11.507 0.643)" fill="#ffe7ae"/>
          <path id="Trazado_873876" data-name="Trazado 873876" d="M55.027,19.251l-1.66-2.325L54.4,14.065a1.277,1.277,0,0,0-1.635-1.635l-2.912.983-2.325-1.66A1.277,1.277,0,0,0,45.5,12.762v3.014l-2.555,1.814a1.277,1.277,0,0,0,.4,2.21l2.784.8.856,2.836a1.277,1.277,0,0,0,1.009.907h.217a1.277,1.277,0,0,0,1.035-.536l1.814-2.555h3.014a1.277,1.277,0,0,0,1.009-2.031Z" transform="translate(-2.924 0.643)" fill="#ffe7ae"/>
        </g>
      </g>
    </g>
  </g>
</svg>
