<svg xmlns="http://www.w3.org/2000/svg" xmlns:xlink="http://www.w3.org/1999/xlink" width="820" height="490" viewBox="0 0 820 490">
  <defs>
    <clipPath id="clip-path">
      <path id="Trazado_611005" data-name="Trazado 611005" d="M0,0H820V489H0Z" transform="translate(0 0)" fill="#e6f3f3"/>
    </clipPath>
  </defs>
  <g id="Grupo_1100259" data-name="Grupo 1100259" transform="translate(-390 -887.663)">
    <g id="Grupo_1073695" data-name="Grupo 1073695" transform="translate(390 887.663)">
      <path id="Trazado_608309" data-name="Trazado 608309" d="M0,0H820V489H0Z" transform="translate(0 0)" fill="#e6f3f3"/>
    </g>
    <path id="Trazado_611089" data-name="Trazado 611089" d="M11.673,0H293.937c6.447,0,11.673,4.925,11.673,11V26c0,6.075-5.226,11-11.673,11H11.673C5.226,37,0,32.075,0,26V11C0,4.925,5.226,0,11.673,0Z" transform="translate(647 915)" fill="#ffe7ae"/>
    <path id="Trazado_880685" data-name="Trazado 880685" d="M6.539,4.2H8.754v8.974a3.818,3.818,0,0,1-1.147,2.918,4.234,4.234,0,0,1-3.028,1.081,4.382,4.382,0,0,1-3.094-1.011A3.646,3.646,0,0,1,.4,13.353H2.61a2.1,2.1,0,0,0,.505,1.534,1.961,1.961,0,0,0,1.463.514,1.823,1.823,0,0,0,1.428-.593,2.368,2.368,0,0,0,.532-1.639Zm8.736,12.973A4.419,4.419,0,0,1,11.984,15.9a4.639,4.639,0,0,1-1.261-3.406v-.264a5.706,5.706,0,0,1,.549-2.544,4.181,4.181,0,0,1,1.542-1.745,4.078,4.078,0,0,1,2.215-.624,3.733,3.733,0,0,1,3,1.239,5.24,5.24,0,0,1,1.059,3.507v.861H12.876a2.856,2.856,0,0,0,.787,1.863,2.362,2.362,0,0,0,1.736.686,2.892,2.892,0,0,0,2.391-1.187l1.151,1.1a3.845,3.845,0,0,1-1.525,1.323A4.774,4.774,0,0,1,15.275,17.176Zm-.255-8.147a1.8,1.8,0,0,0-1.419.615,3.189,3.189,0,0,0-.69,1.714H16.98V11.2a2.6,2.6,0,0,0-.571-1.622A1.785,1.785,0,0,0,15.021,9.028Zm10.705.413a5.285,5.285,0,0,0-.87-.07A1.959,1.959,0,0,0,22.878,10.5V17H20.742V7.49h2.039l.053,1.063a2.406,2.406,0,0,1,2.145-1.239,2,2,0,0,1,.756.123ZM32.493,17a3.3,3.3,0,0,1-.246-.888,3.593,3.593,0,0,1-4.834.246,2.615,2.615,0,0,1-.905-2.021A2.7,2.7,0,0,1,27.637,12a5.473,5.473,0,0,1,3.23-.813h1.31v-.624a1.666,1.666,0,0,0-.413-1.182,1.638,1.638,0,0,0-1.257-.444,1.881,1.881,0,0,0-1.2.365,1.129,1.129,0,0,0-.466.927H26.71a2.37,2.37,0,0,1,.519-1.463A3.455,3.455,0,0,1,28.639,7.7a4.955,4.955,0,0,1,1.991-.387,3.99,3.99,0,0,1,2.663.839,2.993,2.993,0,0,1,1.02,2.36V14.8a4.861,4.861,0,0,0,.36,2.048V17Zm-2.347-1.538a2.429,2.429,0,0,0,1.191-.308,2.055,2.055,0,0,0,.839-.826V12.535H31.025a3.148,3.148,0,0,0-1.784.413,1.338,1.338,0,0,0-.6,1.169,1.248,1.248,0,0,0,.409.98A1.583,1.583,0,0,0,30.146,15.462ZM41.528,9.441a5.285,5.285,0,0,0-.87-.07A1.959,1.959,0,0,0,38.681,10.5V17H36.545V7.49h2.039l.053,1.063a2.406,2.406,0,0,1,2.145-1.239,2,2,0,0,1,.756.123Zm.782,2.725a5.619,5.619,0,0,1,1.02-3.542,3.313,3.313,0,0,1,2.76-1.31,3.114,3.114,0,0,1,2.522,1.116l.123-.94h1.9V20.656H48.5V16.191a3.188,3.188,0,0,1-2.426.984,3.282,3.282,0,0,1-2.733-1.332A5.884,5.884,0,0,1,42.311,12.166Zm2.136.185a3.968,3.968,0,0,0,.576,2.29,1.835,1.835,0,0,0,1.6.831A2.023,2.023,0,0,0,48.5,14.39V10.065a2.025,2.025,0,0,0-1.863-1.037,1.866,1.866,0,0,0-1.6.817A4.33,4.33,0,0,0,44.446,12.351Zm14.247,3.718a3.312,3.312,0,0,1-2.672,1.107,2.952,2.952,0,0,1-2.342-.905,3.851,3.851,0,0,1-.8-2.619V7.49H55.02v6.135q0,1.811,1.5,1.811a2.111,2.111,0,0,0,2.1-1.116V7.49h2.136V17H58.746ZM65.232,17H63.1V7.49h2.136Zm-.4-13.438h2.435L64.828,6.225l-1.714,0ZM73.345,17a3.3,3.3,0,0,1-.246-.888,3.593,3.593,0,0,1-4.834.246,2.615,2.615,0,0,1-.905-2.021A2.7,2.7,0,0,1,68.489,12a5.473,5.473,0,0,1,3.23-.813h1.31v-.624a1.666,1.666,0,0,0-.413-1.182,1.638,1.638,0,0,0-1.257-.444,1.881,1.881,0,0,0-1.2.365,1.129,1.129,0,0,0-.466.927H67.562a2.37,2.37,0,0,1,.519-1.463A3.455,3.455,0,0,1,69.491,7.7a4.955,4.955,0,0,1,1.991-.387,3.99,3.99,0,0,1,2.663.839,2.993,2.993,0,0,1,1.02,2.36V14.8a4.861,4.861,0,0,0,.36,2.048V17ZM71,15.462a2.429,2.429,0,0,0,1.191-.308,2.055,2.055,0,0,0,.839-.826V12.535H71.877a3.148,3.148,0,0,0-1.784.413,1.338,1.338,0,0,0-.6,1.169,1.248,1.248,0,0,0,.409.98A1.583,1.583,0,0,0,71,15.462ZM83.865,7.49l.062,1.1A3.419,3.419,0,0,1,86.7,7.314q2.971,0,3.023,3.4V17H87.583V10.839a1.958,1.958,0,0,0-.391-1.34,1.645,1.645,0,0,0-1.279-.435,2.058,2.058,0,0,0-1.925,1.169V17H81.853V7.49Zm12.217,9.686A4.419,4.419,0,0,1,92.791,15.9a4.639,4.639,0,0,1-1.261-3.406v-.264a5.706,5.706,0,0,1,.549-2.544,4.181,4.181,0,0,1,1.542-1.745,4.078,4.078,0,0,1,2.215-.624,3.733,3.733,0,0,1,3,1.239A5.24,5.24,0,0,1,99.9,12.061v.861H93.683a2.856,2.856,0,0,0,.787,1.863,2.362,2.362,0,0,0,1.736.686A2.892,2.892,0,0,0,98.6,14.284l1.151,1.1a3.845,3.845,0,0,1-1.525,1.323A4.774,4.774,0,0,1,96.082,17.176Zm-.255-8.147a1.8,1.8,0,0,0-1.419.615,3.189,3.189,0,0,0-.69,1.714h4.069V11.2a2.6,2.6,0,0,0-.571-1.622A1.785,1.785,0,0,0,95.827,9.028Zm9.633,6.442A1.931,1.931,0,0,0,106.787,15a1.591,1.591,0,0,0,.563-1.151h2.013a3.137,3.137,0,0,1-.554,1.657,3.632,3.632,0,0,1-1.406,1.217,4.191,4.191,0,0,1-1.916.448,4.055,4.055,0,0,1-3.164-1.292,5.124,5.124,0,0,1-1.169-3.568V12.1a5.039,5.039,0,0,1,1.16-3.476,4.018,4.018,0,0,1,3.164-1.305,3.907,3.907,0,0,1,2.764.989,3.542,3.542,0,0,1,1.121,2.6H107.35a1.956,1.956,0,0,0-.558-1.345,1.8,1.8,0,0,0-1.332-.527,1.879,1.879,0,0,0-1.6.751,3.834,3.834,0,0,0-.571,2.281V12.4a3.9,3.9,0,0,0,.558,2.307A1.878,1.878,0,0,0,105.46,15.471Zm9.7,1.705a4.419,4.419,0,0,1-3.292-1.279,4.639,4.639,0,0,1-1.261-3.406v-.264a5.706,5.706,0,0,1,.549-2.544A4.181,4.181,0,0,1,112.7,7.938a4.078,4.078,0,0,1,2.215-.624,3.733,3.733,0,0,1,3,1.239,5.24,5.24,0,0,1,1.059,3.507v.861h-6.214a2.856,2.856,0,0,0,.787,1.863,2.362,2.362,0,0,0,1.736.686,2.892,2.892,0,0,0,2.391-1.187l1.151,1.1a3.845,3.845,0,0,1-1.525,1.323A4.774,4.774,0,0,1,115.163,17.176Zm-.255-8.147a1.8,1.8,0,0,0-1.419.615,3.189,3.189,0,0,0-.69,1.714h4.069V11.2a2.6,2.6,0,0,0-.571-1.622A1.785,1.785,0,0,0,114.908,9.028Zm11.057,5.388a.968.968,0,0,0-.47-.87,5,5,0,0,0-1.56-.527,8.02,8.02,0,0,1-1.819-.58,2.428,2.428,0,0,1-1.6-2.241,2.531,2.531,0,0,1,1.037-2.057,4.1,4.1,0,0,1,2.637-.826,4.266,4.266,0,0,1,2.755.844A2.677,2.677,0,0,1,128,10.347h-2.136a1.316,1.316,0,0,0-.457-1.024,1.752,1.752,0,0,0-1.213-.409,1.893,1.893,0,0,0-1.147.325,1.025,1.025,0,0,0-.444.87.866.866,0,0,0,.413.765,5.68,5.68,0,0,0,1.67.549,7.9,7.9,0,0,1,1.973.659,2.794,2.794,0,0,1,1.063.918,2.342,2.342,0,0,1,.347,1.3A2.478,2.478,0,0,1,127,16.38a4.535,4.535,0,0,1-2.786.8,4.917,4.917,0,0,1-2.083-.422,3.428,3.428,0,0,1-1.424-1.16A2.746,2.746,0,0,1,120.2,14h2.074a1.5,1.5,0,0,0,.571,1.165,2.22,2.22,0,0,0,1.4.409,2.16,2.16,0,0,0,1.283-.321A.993.993,0,0,0,125.965,14.416ZM132.2,17h-2.136V7.49H132.2ZM129.929,5.021a1.133,1.133,0,0,1,.312-.817,1.179,1.179,0,0,1,.892-.325,1.193,1.193,0,0,1,.9.325,1.125,1.125,0,0,1,.316.817,1.1,1.1,0,0,1-.316.8,1.2,1.2,0,0,1-.9.321,1.188,1.188,0,0,1-.892-.321A1.107,1.107,0,0,1,129.929,5.021Zm4.192,7.154a5.654,5.654,0,0,1,1.02-3.529,3.267,3.267,0,0,1,2.733-1.332,3.1,3.1,0,0,1,2.443,1.055V3.5h2.136V17H140.52l-.105-.984a3.148,3.148,0,0,1-2.558,1.16,3.248,3.248,0,0,1-2.7-1.345A5.861,5.861,0,0,1,134.121,12.175Zm2.136.185a3.958,3.958,0,0,0,.558,2.263,1.811,1.811,0,0,0,1.586.813,2.017,2.017,0,0,0,1.916-1.169V10.206a1.986,1.986,0,0,0-1.9-1.143,1.824,1.824,0,0,0-1.6.822A4.408,4.408,0,0,0,136.257,12.359ZM150.363,17a3.3,3.3,0,0,1-.246-.888,3.593,3.593,0,0,1-4.834.246,2.615,2.615,0,0,1-.905-2.021A2.7,2.7,0,0,1,145.507,12a5.473,5.473,0,0,1,3.23-.813h1.31v-.624a1.666,1.666,0,0,0-.413-1.182,1.638,1.638,0,0,0-1.257-.444,1.881,1.881,0,0,0-1.2.365,1.129,1.129,0,0,0-.466.927H144.58a2.37,2.37,0,0,1,.519-1.463A3.455,3.455,0,0,1,146.509,7.7a4.955,4.955,0,0,1,1.991-.387,3.99,3.99,0,0,1,2.663.839,2.993,2.993,0,0,1,1.02,2.36V14.8a4.861,4.861,0,0,0,.36,2.048V17Zm-2.347-1.538a2.429,2.429,0,0,0,1.191-.308,2.055,2.055,0,0,0,.839-.826V12.535H148.9a3.148,3.148,0,0,0-1.784.413,1.338,1.338,0,0,0-.6,1.169,1.248,1.248,0,0,0,.409.98A1.583,1.583,0,0,0,148.017,15.462Zm6-3.287a5.654,5.654,0,0,1,1.02-3.529,3.267,3.267,0,0,1,2.733-1.332,3.1,3.1,0,0,1,2.443,1.055V3.5h2.136V17h-1.934l-.105-.984a3.148,3.148,0,0,1-2.558,1.16,3.248,3.248,0,0,1-2.7-1.345A5.861,5.861,0,0,1,154.02,12.175Zm2.136.185a3.958,3.958,0,0,0,.558,2.263,1.811,1.811,0,0,0,1.586.813,2.017,2.017,0,0,0,1.916-1.169V10.206a1.986,1.986,0,0,0-1.9-1.143,1.824,1.824,0,0,0-1.6.822A4.408,4.408,0,0,0,156.155,12.359Zm12.612,4.816a4.419,4.419,0,0,1-3.292-1.279,4.639,4.639,0,0,1-1.261-3.406v-.264a5.706,5.706,0,0,1,.549-2.544,4.181,4.181,0,0,1,1.542-1.745,4.078,4.078,0,0,1,2.215-.624,3.733,3.733,0,0,1,3,1.239,5.24,5.24,0,0,1,1.059,3.507v.861h-6.214a2.856,2.856,0,0,0,.787,1.863,2.362,2.362,0,0,0,1.736.686,2.892,2.892,0,0,0,2.391-1.187l1.151,1.1a3.845,3.845,0,0,1-1.525,1.323A4.774,4.774,0,0,1,168.768,17.176Zm-.255-8.147a1.8,1.8,0,0,0-1.419.615,3.189,3.189,0,0,0-.69,1.714h4.069V11.2a2.6,2.6,0,0,0-.571-1.622A1.785,1.785,0,0,0,168.513,9.028Zm11.057,5.388a.968.968,0,0,0-.47-.87,5,5,0,0,0-1.56-.527,8.02,8.02,0,0,1-1.819-.58,2.428,2.428,0,0,1-1.6-2.241,2.531,2.531,0,0,1,1.037-2.057,4.1,4.1,0,0,1,2.637-.826,4.266,4.266,0,0,1,2.755.844,2.677,2.677,0,0,1,1.05,2.188h-2.136a1.316,1.316,0,0,0-.457-1.024,1.752,1.752,0,0,0-1.213-.409,1.893,1.893,0,0,0-1.147.325,1.025,1.025,0,0,0-.444.87.866.866,0,0,0,.413.765,5.68,5.68,0,0,0,1.67.549,7.9,7.9,0,0,1,1.973.659,2.794,2.794,0,0,1,1.063.918,2.342,2.342,0,0,1,.347,1.3,2.478,2.478,0,0,1-1.063,2.079,4.535,4.535,0,0,1-2.786.8,4.917,4.917,0,0,1-2.083-.422,3.428,3.428,0,0,1-1.424-1.16A2.746,2.746,0,0,1,173.8,14h2.074a1.5,1.5,0,0,0,.571,1.165,2.22,2.22,0,0,0,1.4.409,2.16,2.16,0,0,0,1.283-.321A.993.993,0,0,0,179.569,14.416Zm10.547-5.889a3.343,3.343,0,0,1,2.646-1.213q3.041,0,3.085,3.472V17h-2.136V10.865a1.878,1.878,0,0,0-.426-1.393,1.743,1.743,0,0,0-1.252-.409,2.057,2.057,0,0,0-1.916,1.143V17H187.98V3.5h2.136Zm13.649,7.541a3.312,3.312,0,0,1-2.672,1.107,2.952,2.952,0,0,1-2.342-.905,3.851,3.851,0,0,1-.8-2.619V7.49h2.136v6.135q0,1.811,1.5,1.811a2.111,2.111,0,0,0,2.1-1.116V7.49h2.136V17h-2.013Zm6.249-8.578.062.993a3.422,3.422,0,0,1,2.742-1.169,2.629,2.629,0,0,1,2.61,1.459,3.373,3.373,0,0,1,2.918-1.459,2.965,2.965,0,0,1,2.342.87,3.831,3.831,0,0,1,.787,2.566V17H219.34V10.813a1.891,1.891,0,0,0-.4-1.327,1.731,1.731,0,0,0-1.31-.422,1.778,1.778,0,0,0-1.191.391,2.063,2.063,0,0,0-.646,1.024L215.807,17h-2.136V10.742a1.523,1.523,0,0,0-1.714-1.679,1.88,1.88,0,0,0-1.819,1.046V17H208V7.49ZM229.351,17a3.3,3.3,0,0,1-.246-.888,3.593,3.593,0,0,1-4.834.246,2.615,2.615,0,0,1-.905-2.021A2.7,2.7,0,0,1,224.495,12a5.473,5.473,0,0,1,3.23-.813h1.31v-.624a1.666,1.666,0,0,0-.413-1.182,1.638,1.638,0,0,0-1.257-.444,1.881,1.881,0,0,0-1.2.365,1.129,1.129,0,0,0-.466.927h-2.136a2.37,2.37,0,0,1,.519-1.463A3.455,3.455,0,0,1,225.5,7.7a4.955,4.955,0,0,1,1.991-.387,3.99,3.99,0,0,1,2.663.839,2.993,2.993,0,0,1,1.02,2.36V14.8a4.861,4.861,0,0,0,.36,2.048V17ZM227,15.462a2.429,2.429,0,0,0,1.191-.308,2.055,2.055,0,0,0,.839-.826V12.535h-1.151a3.148,3.148,0,0,0-1.784.413,1.338,1.338,0,0,0-.6,1.169,1.248,1.248,0,0,0,.409.98A1.583,1.583,0,0,0,227,15.462Zm8.385-7.972.062,1.1a3.419,3.419,0,0,1,2.769-1.274q2.971,0,3.023,3.4V17h-2.136V10.839a1.958,1.958,0,0,0-.391-1.34,1.645,1.645,0,0,0-1.279-.435,2.058,2.058,0,0,0-1.925,1.169V17h-2.136V7.49ZM249.1,17a3.3,3.3,0,0,1-.246-.888,3.593,3.593,0,0,1-4.834.246,2.615,2.615,0,0,1-.905-2.021A2.7,2.7,0,0,1,244.244,12a5.473,5.473,0,0,1,3.23-.813h1.31v-.624a1.666,1.666,0,0,0-.413-1.182,1.638,1.638,0,0,0-1.257-.444,1.881,1.881,0,0,0-1.2.365,1.129,1.129,0,0,0-.466.927h-2.136a2.37,2.37,0,0,1,.519-1.463A3.455,3.455,0,0,1,245.246,7.7a4.955,4.955,0,0,1,1.991-.387,3.99,3.99,0,0,1,2.663.839,2.993,2.993,0,0,1,1.02,2.36V14.8a4.861,4.861,0,0,0,.36,2.048V17Zm-2.347-1.538a2.429,2.429,0,0,0,1.191-.308,2.055,2.055,0,0,0,.839-.826V12.535h-1.151a3.148,3.148,0,0,0-1.784.413,1.338,1.338,0,0,0-.6,1.169,1.248,1.248,0,0,0,.409.98A1.583,1.583,0,0,0,246.753,15.462Zm11.733-1.046a.968.968,0,0,0-.47-.87,5,5,0,0,0-1.56-.527,8.02,8.02,0,0,1-1.819-.58,2.428,2.428,0,0,1-1.6-2.241,2.531,2.531,0,0,1,1.037-2.057,4.1,4.1,0,0,1,2.637-.826,4.266,4.266,0,0,1,2.755.844,2.677,2.677,0,0,1,1.05,2.188h-2.136a1.316,1.316,0,0,0-.457-1.024,1.752,1.752,0,0,0-1.213-.409,1.893,1.893,0,0,0-1.147.325,1.025,1.025,0,0,0-.444.87.866.866,0,0,0,.413.765,5.68,5.68,0,0,0,1.67.549,7.9,7.9,0,0,1,1.973.659A2.794,2.794,0,0,1,260.24,13a2.342,2.342,0,0,1,.347,1.3,2.478,2.478,0,0,1-1.063,2.079,4.535,4.535,0,0,1-2.786.8,4.917,4.917,0,0,1-2.083-.422,3.428,3.428,0,0,1-1.424-1.16,2.746,2.746,0,0,1-.51-1.591h2.074a1.5,1.5,0,0,0,.571,1.165,2.22,2.22,0,0,0,1.4.409,2.16,2.16,0,0,0,1.283-.321A.993.993,0,0,0,258.486,14.416Z" transform="translate(669 922)" fill="#12263f"/>
    <path id="Trazado_873852" data-name="Trazado 873852" d="M331.345,230.22l-24.59-44.855h-141.8l-24.59,44.855-14.2,25.907H345.546Z" transform="translate(1036.964 1403.137) rotate(180)" fill="#c2e8e8"/>
    <path id="Trazado_873853" data-name="Trazado 873853" d="M251.639,0,183.073,129.34H320.2Z" transform="translate(1052.607 1352.188) rotate(180)" fill="#d8dde0"/>
    <path id="Trazado_873854" data-name="Trazado 873854" d="M44.968,397.035,0,474.922H402.288L357.32,397.035Z" transform="translate(1002.289 1461.315) rotate(180)" fill="#4e5661"/>
    <path id="Trazado_873855" data-name="Trazado 873855" d="M332.719,290.947H106.756L67,361.35H372.47Z" transform="translate(1020.705 1432.156) rotate(180)" fill="#aec2dd"/>
    <path id="Trazado_880686" data-name="Trazado 880686" d="M89.344,11.211A4.025,4.025,0,0,1,87.988,14.1a4.76,4.76,0,0,1-3.223,1.055,4.28,4.28,0,0,1-3.441-1.473A6.038,6.038,0,0,1,80.07,9.641v-.7a6.819,6.819,0,0,1,.578-2.891A4.332,4.332,0,0,1,82.3,4.137a5.164,5.164,0,0,1,5.668.387,4.326,4.326,0,0,1,1.391,2.961H87.016a2.376,2.376,0,0,0-.613-1.6,2.271,2.271,0,0,0-1.605-.5,1.991,1.991,0,0,0-1.754.84,4.707,4.707,0,0,0-.6,2.605V9.7a5.038,5.038,0,0,0,.559,2.7,1.954,1.954,0,0,0,1.762.852,2.314,2.314,0,0,0,1.621-.5A2.241,2.241,0,0,0,87,11.211Zm1.039-.516a5.013,5.013,0,0,1,.484-2.242A3.546,3.546,0,0,1,92.262,6.93a4.069,4.069,0,0,1,2.113-.539,3.849,3.849,0,0,1,2.793,1.047,4.2,4.2,0,0,1,1.207,2.844l.016.578A4.418,4.418,0,0,1,97.3,13.98a4.209,4.209,0,0,1-5.832,0,4.5,4.5,0,0,1-1.09-3.187Zm2.258.16a3.16,3.16,0,0,0,.453,1.843,1.628,1.628,0,0,0,2.578.008,3.457,3.457,0,0,0,.461-2.015,3.128,3.128,0,0,0-.461-1.831,1.5,1.5,0,0,0-1.3-.649,1.474,1.474,0,0,0-1.281.646A3.516,3.516,0,0,0,92.641,10.856ZM101.9,6.547l.07.945a2.971,2.971,0,0,1,2.43-1.1,2.255,2.255,0,0,1,2.242,1.289,2.9,2.9,0,0,1,2.539-1.289,2.521,2.521,0,0,1,2.047.8A3.681,3.681,0,0,1,111.9,9.6V15h-2.266V9.609a1.61,1.61,0,0,0-.281-1.051,1.246,1.246,0,0,0-.992-.332,1.409,1.409,0,0,0-1.406.969l.008,5.8H104.7V9.617a1.59,1.59,0,0,0-.289-1.062,1.259,1.259,0,0,0-.984-.328,1.463,1.463,0,0,0-1.391.8V15H99.781V6.547Zm19.344,4.3a5.07,5.07,0,0,1-.887,3.129,2.843,2.843,0,0,1-2.395,1.176,2.633,2.633,0,0,1-2.07-.891V18.25h-2.258V6.547h2.094l.078.828a2.654,2.654,0,0,1,2.141-.984,2.862,2.862,0,0,1,2.43,1.156,5.207,5.207,0,0,1,.867,3.188Zm-2.258-.164a3.327,3.327,0,0,0-.418-1.82,1.361,1.361,0,0,0-1.215-.641,1.478,1.478,0,0,0-1.461.813V12.5a1.5,1.5,0,0,0,1.477.836Q118.984,13.336,118.984,10.688Zm7.547,4.469a4.15,4.15,0,0,1-3.027-1.141,4.054,4.054,0,0,1-1.168-3.039v-.219a5.106,5.106,0,0,1,.492-2.277,3.612,3.612,0,0,1,1.395-1.547,3.914,3.914,0,0,1,2.059-.543,3.508,3.508,0,0,1,2.73,1.094,4.444,4.444,0,0,1,1,3.1v.922h-5.383a2.1,2.1,0,0,0,.66,1.328,2,2,0,0,0,1.395.5,2.437,2.437,0,0,0,2.039-.945l1.109,1.242a3.389,3.389,0,0,1-1.375,1.121A4.511,4.511,0,0,1,126.531,15.156Zm-.258-6.945a1.411,1.411,0,0,0-1.09.455,2.357,2.357,0,0,0-.535,1.3h3.141V9.788a1.681,1.681,0,0,0-.406-1.165A1.456,1.456,0,0,0,126.273,8.211Zm7.719-3.742V6.547h1.445V8.2h-1.445v4.219a1.007,1.007,0,0,0,.18.672.9.9,0,0,0,.688.2,3.6,3.6,0,0,0,.664-.055v1.711a4.648,4.648,0,0,1-1.367.2,2.156,2.156,0,0,1-2.422-2.4V8.2H130.5V6.547h1.234V4.469Zm6.594,10.688a4.15,4.15,0,0,1-3.027-1.141,4.054,4.054,0,0,1-1.168-3.039v-.219a5.106,5.106,0,0,1,.492-2.277,3.612,3.612,0,0,1,1.395-1.547,3.914,3.914,0,0,1,2.059-.543,3.508,3.508,0,0,1,2.73,1.094,4.444,4.444,0,0,1,1,3.1v.922H138.68a2.1,2.1,0,0,0,.66,1.328,2,2,0,0,0,1.395.5,2.437,2.437,0,0,0,2.039-.945l1.109,1.242a3.389,3.389,0,0,1-1.375,1.121A4.511,4.511,0,0,1,140.586,15.156Zm-.258-6.945a1.411,1.411,0,0,0-1.09.455,2.357,2.357,0,0,0-.535,1.3h3.141V9.788a1.681,1.681,0,0,0-.406-1.165A1.456,1.456,0,0,0,140.328,8.211Zm7.094-1.664.07.977a2.951,2.951,0,0,1,2.43-1.133,2.453,2.453,0,0,1,2,.789,3.682,3.682,0,0,1,.672,2.359V15h-2.258V9.594a1.465,1.465,0,0,0-.312-1.043,1.4,1.4,0,0,0-1.039-.324,1.553,1.553,0,0,0-1.43.813V15H145.3V6.547Zm10.4,6.789a1.481,1.481,0,0,0,1.016-.344,1.2,1.2,0,0,0,.406-.914h2.117a2.9,2.9,0,0,1-.469,1.574,3.093,3.093,0,0,1-1.262,1.109,3.949,3.949,0,0,1-1.77.395A3.67,3.67,0,0,1,155,14a4.56,4.56,0,0,1-1.047-3.184v-.148a4.508,4.508,0,0,1,1.039-3.117,3.627,3.627,0,0,1,2.852-1.164,3.555,3.555,0,0,1,2.543.9,3.2,3.2,0,0,1,.973,2.4h-2.117a1.551,1.551,0,0,0-.406-1.072,1.51,1.51,0,0,0-2.223.163,3.333,3.333,0,0,0-.4,1.866v.235a3.375,3.375,0,0,0,.4,1.878A1.377,1.377,0,0,0,157.82,13.336ZM165.031,15h-2.266V6.547h2.266Zm-2.4-10.641a1.112,1.112,0,0,1,.34-.836,1.465,1.465,0,0,1,1.848,0,1.105,1.105,0,0,1,.344.836,1.109,1.109,0,0,1-.348.844,1.448,1.448,0,0,1-1.836,0A1.109,1.109,0,0,1,162.633,4.359ZM171.789,15a2.507,2.507,0,0,1-.227-.758,2.732,2.732,0,0,1-2.133.914,3,3,0,0,1-2.059-.719,2.312,2.312,0,0,1-.816-1.812,2.389,2.389,0,0,1,1-2.062,4.915,4.915,0,0,1,2.879-.727h1.039V9.352a1.393,1.393,0,0,0-.3-.937,1.183,1.183,0,0,0-.949-.352,1.345,1.345,0,0,0-.895.273.929.929,0,0,0-.324.75h-2.258a2.268,2.268,0,0,1,.453-1.359,3,3,0,0,1,1.281-.98,4.669,4.669,0,0,1,1.859-.355,3.689,3.689,0,0,1,2.48.785,2.747,2.747,0,0,1,.918,2.207v3.664a4.041,4.041,0,0,0,.336,1.82V15Zm-1.867-1.57a1.945,1.945,0,0,0,.922-.223,1.462,1.462,0,0,0,.625-.6V11.156h-.844q-1.7,0-1.8,1.172l-.008.133a.9.9,0,0,0,.3.7A1.153,1.153,0,0,0,169.922,13.43Z" transform="translate(673 1014)" fill="#fff"/>
    <path id="Trazado_880687" data-name="Trazado 880687" d="M103.16,15h-2.344V10.125h-4.57V15H93.9V3.625h2.344V8.234h4.57V3.625h2.344Zm6.8,0a2.507,2.507,0,0,1-.227-.758,2.732,2.732,0,0,1-2.133.914,3,3,0,0,1-2.059-.719,2.312,2.312,0,0,1-.816-1.812,2.389,2.389,0,0,1,1-2.062,4.915,4.915,0,0,1,2.879-.727h1.039V9.352a1.393,1.393,0,0,0-.3-.937,1.183,1.183,0,0,0-.949-.352,1.345,1.345,0,0,0-.895.273.929.929,0,0,0-.324.75H104.91a2.268,2.268,0,0,1,.453-1.359,3,3,0,0,1,1.281-.98,4.669,4.669,0,0,1,1.859-.355,3.689,3.689,0,0,1,2.48.785,2.747,2.747,0,0,1,.918,2.207v3.664a4.041,4.041,0,0,0,.336,1.82V15Zm-1.867-1.57a1.945,1.945,0,0,0,.922-.223,1.462,1.462,0,0,0,.625-.6V11.156h-.844q-1.7,0-1.8,1.172l-.008.133a.9.9,0,0,0,.3.7A1.153,1.153,0,0,0,108.09,13.43Zm13.164-2.578a5.119,5.119,0,0,1-.867,3.168,2.872,2.872,0,0,1-2.422,1.137,2.639,2.639,0,0,1-2.2-1.055l-.1.9h-2.031V3h2.258V7.3a2.571,2.571,0,0,1,2.055-.914,2.9,2.9,0,0,1,2.426,1.137,5.126,5.126,0,0,1,.879,3.2ZM119,10.688a3.363,3.363,0,0,0-.406-1.871,1.374,1.374,0,0,0-1.211-.59,1.489,1.489,0,0,0-1.484.883v3.336a1.509,1.509,0,0,0,1.5.891,1.394,1.394,0,0,0,1.438-1.078A5.562,5.562,0,0,0,119,10.688ZM125.027,15h-2.266V6.547h2.266Zm-2.4-10.641a1.112,1.112,0,0,1,.34-.836,1.465,1.465,0,0,1,1.848,0,1.105,1.105,0,0,1,.344.836,1.108,1.108,0,0,1-.348.844,1.448,1.448,0,0,1-1.836,0A1.108,1.108,0,0,1,122.629,4.359ZM129.27,15H127V3h2.266Zm4.242,0h-2.266V6.547h2.266Zm-2.4-10.641a1.112,1.112,0,0,1,.34-.836,1.465,1.465,0,0,1,1.848,0,1.105,1.105,0,0,1,.344.836,1.109,1.109,0,0,1-.348.844,1.448,1.448,0,0,1-1.836,0A1.109,1.109,0,0,1,131.113,4.359Zm3.906,6.352a5.094,5.094,0,0,1,.887-3.148,2.877,2.877,0,0,1,2.426-1.172,2.589,2.589,0,0,1,2.039.922V3h2.266V15H140.6l-.109-.9a2.657,2.657,0,0,1-2.172,1.055,2.869,2.869,0,0,1-2.395-1.176A5.258,5.258,0,0,1,135.02,10.711Zm2.258.168a3.337,3.337,0,0,0,.414,1.823,1.349,1.349,0,0,0,1.2.634,1.511,1.511,0,0,0,1.477-.884V9.111a1.489,1.489,0,0,0-1.461-.884Q137.277,8.227,137.277,10.879ZM149.285,15a2.507,2.507,0,0,1-.227-.758,2.732,2.732,0,0,1-2.133.914,3,3,0,0,1-2.059-.719,2.312,2.312,0,0,1-.816-1.812,2.389,2.389,0,0,1,1-2.062,4.915,4.915,0,0,1,2.879-.727h1.039V9.352a1.393,1.393,0,0,0-.3-.937,1.183,1.183,0,0,0-.949-.352,1.345,1.345,0,0,0-.895.273.929.929,0,0,0-.324.75h-2.258a2.268,2.268,0,0,1,.453-1.359,3,3,0,0,1,1.281-.98,4.669,4.669,0,0,1,1.859-.355,3.689,3.689,0,0,1,2.48.785,2.747,2.747,0,0,1,.918,2.207v3.664a4.041,4.041,0,0,0,.336,1.82V15Zm-1.867-1.57a1.945,1.945,0,0,0,.922-.223,1.462,1.462,0,0,0,.625-.6V11.156h-.844q-1.7,0-1.8,1.172l-.008.133a.9.9,0,0,0,.3.7A1.153,1.153,0,0,0,147.418,13.43Zm5.2-2.719a5.094,5.094,0,0,1,.887-3.148,2.877,2.877,0,0,1,2.426-1.172,2.589,2.589,0,0,1,2.039.922V3h2.266V15h-2.039l-.109-.9a2.657,2.657,0,0,1-2.172,1.055,2.869,2.869,0,0,1-2.395-1.176A5.258,5.258,0,0,1,152.613,10.711Zm2.258.168a3.337,3.337,0,0,0,.414,1.823,1.349,1.349,0,0,0,1.2.634,1.511,1.511,0,0,0,1.477-.884V9.111a1.489,1.489,0,0,0-1.461-.884Q154.871,8.227,154.871,10.879Z" transform="translate(673 1093)" fill="#12263f"/>
    <path id="Trazado_880688" data-name="Trazado 880688" d="M96.148,15V3.625h3.5a5.315,5.315,0,0,1,2.684.676,4.712,4.712,0,0,1,1.848,1.922,5.928,5.928,0,0,1,.664,2.832v.523a5.945,5.945,0,0,1-.652,2.82,4.672,4.672,0,0,1-1.84,1.914,5.355,5.355,0,0,1-2.68.688Zm2.344-9.477v7.594h1.133a2.545,2.545,0,0,0,2.1-.9,4.06,4.06,0,0,0,.742-2.57v-.6a4.124,4.124,0,0,0-.719-2.629,2.537,2.537,0,0,0-2.1-.895Zm11.8,9.633a4.15,4.15,0,0,1-3.027-1.141,4.054,4.054,0,0,1-1.168-3.039v-.219a5.106,5.106,0,0,1,.492-2.277,3.612,3.612,0,0,1,1.395-1.547,3.914,3.914,0,0,1,2.059-.543,3.508,3.508,0,0,1,2.73,1.094,4.444,4.444,0,0,1,1,3.1v.922h-5.383a2.1,2.1,0,0,0,.66,1.328,2,2,0,0,0,1.395.5,2.437,2.437,0,0,0,2.039-.945l1.109,1.242a3.389,3.389,0,0,1-1.375,1.121A4.511,4.511,0,0,1,110.289,15.156Zm-.258-6.945a1.411,1.411,0,0,0-1.09.455,2.357,2.357,0,0,0-.535,1.3h3.141V9.788a1.681,1.681,0,0,0-.406-1.165A1.456,1.456,0,0,0,110.031,8.211Zm9.594,4.453a.727.727,0,0,0-.41-.652,4.659,4.659,0,0,0-1.316-.426q-3.016-.633-3.016-2.562a2.323,2.323,0,0,1,.934-1.879,3.766,3.766,0,0,1,2.441-.754,4.053,4.053,0,0,1,2.574.758,2.388,2.388,0,0,1,.965,1.969h-2.258a1.092,1.092,0,0,0-.312-.8A1.322,1.322,0,0,0,118.25,8a1.351,1.351,0,0,0-.883.258.814.814,0,0,0-.312.656.7.7,0,0,0,.355.605,3.657,3.657,0,0,0,1.2.4,9.8,9.8,0,0,1,1.422.379,2.336,2.336,0,0,1,1.789,2.273,2.2,2.2,0,0,1-.992,1.871,4.28,4.28,0,0,1-2.562.715,4.47,4.47,0,0,1-1.887-.379,3.166,3.166,0,0,1-1.293-1.039,2.414,2.414,0,0,1-.469-1.426h2.141a1.179,1.179,0,0,0,.445.922,1.766,1.766,0,0,0,1.109.32,1.635,1.635,0,0,0,.98-.246A.766.766,0,0,0,119.625,12.664Zm6.352-8.2V6.547h1.445V8.2h-1.445v4.219a1.007,1.007,0,0,0,.18.672.9.9,0,0,0,.688.2,3.6,3.6,0,0,0,.664-.055v1.711a4.648,4.648,0,0,1-1.367.2,2.156,2.156,0,0,1-2.422-2.4V8.2h-1.234V6.547h1.234V4.469Zm7.453,4.2a6.134,6.134,0,0,0-.812-.062,1.654,1.654,0,0,0-1.68.867V15H128.68V6.547h2.133l.063,1.008a2.092,2.092,0,0,1,1.883-1.164,2.366,2.366,0,0,1,.7.1Zm4.828,6.492a4.15,4.15,0,0,1-3.027-1.141,4.054,4.054,0,0,1-1.168-3.039v-.219a5.106,5.106,0,0,1,.492-2.277,3.612,3.612,0,0,1,1.395-1.547,3.914,3.914,0,0,1,2.059-.543,3.508,3.508,0,0,1,2.73,1.094,4.444,4.444,0,0,1,1,3.1v.922h-5.383a2.1,2.1,0,0,0,.66,1.328,2,2,0,0,0,1.395.5,2.437,2.437,0,0,0,2.039-.945l1.109,1.242a3.389,3.389,0,0,1-1.375,1.121A4.511,4.511,0,0,1,138.258,15.156ZM138,8.211a1.411,1.411,0,0,0-1.09.455,2.357,2.357,0,0,0-.535,1.3h3.141V9.788a1.681,1.681,0,0,0-.406-1.165A1.456,1.456,0,0,0,138,8.211Zm7.609,4.969h4.133V15h-7.016V13.625L146.7,8.367h-3.859V6.547h6.773v1.33ZM156.055,15a2.507,2.507,0,0,1-.227-.758,2.732,2.732,0,0,1-2.133.914,3,3,0,0,1-2.059-.719,2.312,2.312,0,0,1-.816-1.812,2.389,2.389,0,0,1,1-2.062,4.915,4.915,0,0,1,2.879-.727h1.039V9.352a1.393,1.393,0,0,0-.3-.937,1.183,1.183,0,0,0-.949-.352,1.345,1.345,0,0,0-.895.273.929.929,0,0,0-.324.75h-2.258a2.268,2.268,0,0,1,.453-1.359,3,3,0,0,1,1.281-.98,4.669,4.669,0,0,1,1.859-.355,3.689,3.689,0,0,1,2.48.785A2.747,2.747,0,0,1,158,9.383v3.664a4.041,4.041,0,0,0,.336,1.82V15Zm-1.867-1.57a1.945,1.945,0,0,0,.922-.223,1.462,1.462,0,0,0,.625-.6V11.156h-.844q-1.7,0-1.8,1.172l-.008.133a.9.9,0,0,0,.3.7A1.153,1.153,0,0,0,154.188,13.43Z" transform="translate(673 1169)" fill="#12263f"/>
    <path id="Trazado_880689" data-name="Trazado 880689" d="M102.559,11.211A4.025,4.025,0,0,1,101.2,14.1a4.76,4.76,0,0,1-3.223,1.055,4.28,4.28,0,0,1-3.441-1.473,6.038,6.038,0,0,1-1.254-4.043v-.7a6.819,6.819,0,0,1,.578-2.891,4.332,4.332,0,0,1,1.652-1.918,5.164,5.164,0,0,1,5.668.387,4.326,4.326,0,0,1,1.391,2.961H100.23a2.376,2.376,0,0,0-.613-1.6,2.271,2.271,0,0,0-1.605-.5,1.991,1.991,0,0,0-1.754.84,4.707,4.707,0,0,0-.6,2.605V9.7a5.038,5.038,0,0,0,.559,2.7,1.954,1.954,0,0,0,1.762.852,2.314,2.314,0,0,0,1.621-.5,2.241,2.241,0,0,0,.613-1.535ZM103.6,10.7a5.013,5.013,0,0,1,.484-2.242,3.546,3.546,0,0,1,1.395-1.523,4.069,4.069,0,0,1,2.113-.539,3.849,3.849,0,0,1,2.793,1.047,4.2,4.2,0,0,1,1.207,2.844l.016.578a4.418,4.418,0,0,1-1.086,3.121,4.209,4.209,0,0,1-5.832,0A4.5,4.5,0,0,1,103.6,10.8Zm2.258.16a3.16,3.16,0,0,0,.453,1.843,1.628,1.628,0,0,0,2.578.008,3.457,3.457,0,0,0,.461-2.015,3.128,3.128,0,0,0-.461-1.831,1.5,1.5,0,0,0-1.3-.649,1.474,1.474,0,0,0-1.281.646A3.516,3.516,0,0,0,105.855,10.856Zm9.219-4.309.07.977a2.951,2.951,0,0,1,2.43-1.133,2.453,2.453,0,0,1,2,.789,3.682,3.682,0,0,1,.672,2.359V15h-2.258V9.594a1.465,1.465,0,0,0-.312-1.043,1.4,1.4,0,0,0-1.039-.324,1.553,1.553,0,0,0-1.43.813V15h-2.258V6.547Zm6.531,4.164a5.094,5.094,0,0,1,.887-3.148,2.877,2.877,0,0,1,2.426-1.172,2.589,2.589,0,0,1,2.039.922V3h2.266V15h-2.039l-.109-.9a2.657,2.657,0,0,1-2.172,1.055,2.869,2.869,0,0,1-2.395-1.176A5.258,5.258,0,0,1,121.605,10.711Zm2.258.168a3.337,3.337,0,0,0,.414,1.823,1.349,1.349,0,0,0,1.2.634,1.511,1.511,0,0,0,1.477-.884V9.111a1.489,1.489,0,0,0-1.461-.884Q123.863,8.227,123.863,10.879Zm12.172,3.262a2.831,2.831,0,0,1-2.312,1.016,2.67,2.67,0,0,1-2.074-.781,3.335,3.335,0,0,1-.73-2.289V6.547h2.258v5.467q0,1.322,1.2,1.322a1.63,1.63,0,0,0,1.578-.8V6.547h2.266V15H136.1Zm7.406-.8a1.481,1.481,0,0,0,1.016-.344,1.2,1.2,0,0,0,.406-.914h2.117a2.9,2.9,0,0,1-.469,1.574,3.093,3.093,0,0,1-1.262,1.109,3.949,3.949,0,0,1-1.77.395A3.67,3.67,0,0,1,140.621,14a4.56,4.56,0,0,1-1.047-3.184v-.148a4.508,4.508,0,0,1,1.039-3.117,3.627,3.627,0,0,1,2.852-1.164,3.555,3.555,0,0,1,2.543.9,3.2,3.2,0,0,1,.973,2.4h-2.117a1.551,1.551,0,0,0-.406-1.072,1.51,1.51,0,0,0-2.223.163,3.333,3.333,0,0,0-.4,1.866v.235a3.375,3.375,0,0,0,.4,1.878A1.377,1.377,0,0,0,143.441,13.336Zm7.531-8.867V6.547h1.445V8.2h-1.445v4.219a1.007,1.007,0,0,0,.18.672.9.9,0,0,0,.688.2,3.6,3.6,0,0,0,.664-.055v1.711a4.648,4.648,0,0,1-1.367.2,2.156,2.156,0,0,1-2.422-2.4V8.2H147.48V6.547h1.234V4.469ZM158.574,15a2.507,2.507,0,0,1-.227-.758,2.732,2.732,0,0,1-2.133.914,3,3,0,0,1-2.059-.719,2.312,2.312,0,0,1-.816-1.812,2.389,2.389,0,0,1,1-2.062,4.915,4.915,0,0,1,2.879-.727h1.039V9.352a1.393,1.393,0,0,0-.3-.937A1.183,1.183,0,0,0,157,8.063a1.345,1.345,0,0,0-.895.273.929.929,0,0,0-.324.75h-2.258a2.268,2.268,0,0,1,.453-1.359,3,3,0,0,1,1.281-.98,4.669,4.669,0,0,1,1.859-.355,3.689,3.689,0,0,1,2.48.785,2.747,2.747,0,0,1,.918,2.207v3.664a4.041,4.041,0,0,0,.336,1.82V15Zm-1.867-1.57a1.945,1.945,0,0,0,.922-.223,1.462,1.462,0,0,0,.625-.6V11.156h-.844q-1.7,0-1.8,1.172l-.008.133a.9.9,0,0,0,.3.7A1.153,1.153,0,0,0,156.707,13.43Z" transform="translate(673 1245)" fill="#12263f"/>
    <path id="Trazado_880690" data-name="Trazado 880690" d="M0,0H100V6H0Z" transform="translate(948 1024)" fill="#4e5661"/>
    <path id="Trazado_880691" data-name="Trazado 880691" d="M0,0H133V6H0Z" transform="translate(685 1107) rotate(180)" fill="#aec2dd"/>
    <path id="Trazado_880692" data-name="Trazado 880692" d="M0,0H133V6H0Z" transform="translate(753 1262) rotate(180)" fill="#d8dde0"/>
    <path id="Trazado_880693" data-name="Trazado 880693" d="M0,0H158V6H0Z" transform="translate(845 1178)" fill="#c2e8e8"/>
    <path id="Trazado_880694" data-name="Trazado 880694" d="M50,0A50,50,0,1,1,0,50,50,50,0,0,1,50,0Z" transform="translate(1025 975)" fill="#4e5661"/>
    <path id="Trazado_880695" data-name="Trazado 880695" d="M50,0A50,50,0,1,1,0,50,50,50,0,0,1,50,0Z" transform="translate(575 1156) rotate(180)" fill="#aec2dd"/>
    <path id="Trazado_880696" data-name="Trazado 880696" d="M50,0A50,50,0,1,1,0,50,50,50,0,0,1,50,0Z" transform="translate(643 1311) rotate(180)" fill="#d8dde0"/>
    <path id="Trazado_880697" data-name="Trazado 880697" d="M50,0A50,50,0,1,1,0,50,50,50,0,0,1,50,0Z" transform="translate(980 1129)" fill="#c2e8e8"/>
    <path id="Trazado_880698" data-name="Trazado 880698" d="M41,0A41,41,0,1,1,0,41,41,41,0,0,1,41,0Z" transform="translate(1034 984)" fill="#e6f3f3"/>
    <path id="Trazado_880699" data-name="Trazado 880699" d="M41,0A41,41,0,1,1,0,41,41,41,0,0,1,41,0Z" transform="translate(989 1138)" fill="#e6f3f3"/>
    <path id="Trazado_880700" data-name="Trazado 880700" d="M41,0A41,41,0,1,1,0,41,41,41,0,0,1,41,0Z" transform="translate(566 1147) rotate(180)" fill="#e6f3f3"/>
    <path id="Trazado_880701" data-name="Trazado 880701" d="M41,0A41,41,0,1,1,0,41,41,41,0,0,1,41,0Z" transform="translate(634 1302) rotate(180)" fill="#e6f3f3"/>
    <g id="Grupo_1100246" data-name="Grupo 1100246" transform="translate(498 1075)">
      <path id="Trazado_880597" data-name="Trazado 880597" d="M25.421,69.839V64.328A25.446,25.446,0,0,0,2.035,86.247h5.56A19.967,19.967,0,0,1,25.421,69.839Zm0,0" transform="translate(-1.804 -57.04)" fill="#4e5661"/>
      <path id="Trazado_880598" data-name="Trazado 880598" d="M240.313,309.323v5.511a25.454,25.454,0,0,0,23.616-25.186h-5.5a19.923,19.923,0,0,1-18.12,19.675Zm0,0" transform="translate(-213.091 -256.837)" fill="#4e5661"/>
      <path id="Trazado_880599" data-name="Trazado 880599" d="M313.854,21.709h13.883a1.8,1.8,0,0,0,1.762-2.185A25.467,25.467,0,0,0,308.579.022a1.8,1.8,0,0,0-2.072,1.783V15.026a20.064,20.064,0,0,1,7.346,6.683Zm0,0" transform="translate(-271.787 0)" fill="#4e5661"/>
      <path id="Trazado_880600" data-name="Trazado 880600" d="M5.494,289.648H0a25.464,25.464,0,0,0,23.6,25.186h.015v-5.513A19.93,19.93,0,0,1,5.495,289.648Zm0,0" transform="translate(0 -256.836)" fill="#4e5661"/>
      <path id="Trazado_880601" data-name="Trazado 880601" d="M80.32,160.416a16.387,16.387,0,0,0,5.42,12.14V172a10.9,10.9,0,0,1,5.55-9.493,7.62,7.62,0,0,1,5.35-13.047h0a7.62,7.62,0,0,1,5.349,13.047A10.906,10.906,0,0,1,107.539,172v.56a16.317,16.317,0,0,0-10.9-28.462h0a16.339,16.339,0,0,0-16.32,16.319Zm0,0" transform="translate(-71.222 -127.774)" fill="#4e5661"/>
      <path id="Trazado_880602" data-name="Trazado 880602" d="M192.94,223.262a4.018,4.018,0,0,0,0,8.036h0a4.018,4.018,0,0,0,0-8.036Zm0,0" transform="translate(-167.521 -197.971)" fill="#4e5661"/>
      <path id="Trazado_880603" data-name="Trazado 880603" d="M174.58,333.321a7.3,7.3,0,0,0-7.292-7.294h0a7.3,7.3,0,0,0-7.295,7.294v3.019a16.347,16.347,0,0,0,14.588,0Zm0,0" transform="translate(-141.868 -289.095)" fill="#4e5661"/>
    </g>
    <g id="Grupo_1100247" data-name="Grupo 1100247" transform="translate(1052 996.998)">
      <path id="Trazado_880604" data-name="Trazado 880604" d="M193.393,180H182.377A1.376,1.376,0,0,0,181,181.377V209.1a1.376,1.376,0,0,0,1.377,1.377h11.016a1.376,1.376,0,0,0,1.377-1.377V181.377A1.376,1.376,0,0,0,193.393,180Z" transform="translate(-164.385 -163.476)" fill="#4e5661"/>
      <path id="Trazado_880605" data-name="Trazado 880605" d="M12.484,270H1.377A1.376,1.376,0,0,0,0,271.377v19.461a1.376,1.376,0,0,0,1.377,1.377H12.484a1.376,1.376,0,0,0,1.377-1.377V271.377A1.376,1.376,0,0,0,12.484,270Z" transform="translate(0 -245.214)" fill="#4e5661"/>
      <path id="Trazado_880606" data-name="Trazado 880606" d="M373.484,360H362.377A1.376,1.376,0,0,0,361,361.377v11.2a1.376,1.376,0,0,0,1.377,1.377h11.107a1.376,1.376,0,0,0,1.377-1.377v-11.2A1.376,1.376,0,0,0,373.484,360Z" transform="translate(-327.861 -326.953)" fill="#4e5661"/>
      <path id="Trazado_880607" data-name="Trazado 880607" d="M197.091,4.758a1.379,1.379,0,0,0-1.105-.937l-2.9-.436L191.774.7a1.434,1.434,0,0,0-2.463,0L188,3.385l-2.9.436a1.378,1.378,0,0,0-.762,2.344l2.091,2.057-.481,2.894a1.377,1.377,0,0,0,1.993,1.448l2.6-1.351,2.6,1.351a1.377,1.377,0,0,0,1.993-1.448l-.481-2.894,2.091-2.057A1.378,1.378,0,0,0,197.091,4.758Z" transform="translate(-167.042)" fill="#4e5661"/>
      <path id="Trazado_880608" data-name="Trazado 880608" d="M5.1,94.426a1.378,1.378,0,0,0-.762,2.344l2.091,2.057-.481,2.894a1.377,1.377,0,0,0,1.993,1.448l2.6-1.351,2.6,1.351a1.377,1.377,0,0,0,1.993-1.448l-.481-2.894,2.091-2.057a1.378,1.378,0,0,0-.762-2.344l-2.9-.436-1.311-2.623a1.434,1.434,0,0,0-2.463,0L8,93.99Z" transform="translate(-3.566 -82.343)" fill="#4e5661"/>
      <path id="Trazado_880609" data-name="Trazado 880609" d="M377.091,185.363a1.379,1.379,0,0,0-1.105-.937l-2.9-.436-1.311-2.623a1.434,1.434,0,0,0-2.463,0L368,183.99l-2.9.436a1.378,1.378,0,0,0-.762,2.344l2.091,2.057-.481,2.894a1.377,1.377,0,0,0,1.993,1.448l2.6-1.351,2.6,1.351a1.377,1.377,0,0,0,1.993-1.448l-.481-2.894,2.091-2.057A1.378,1.378,0,0,0,377.091,185.363Z" transform="translate(-330.519 -164.081)" fill="#4e5661"/>
    </g>
    <path id="Trazado_880610" data-name="Trazado 880610" d="M86.22,56.023a18.252,18.252,0,0,1,4.292,4.6l.836,1.283a.121.121,0,0,1-.041.171L85.026,65.7a.122.122,0,0,1-.166-.044l-.6-1.04h0l-.787-1.36a2.061,2.061,0,0,0-3.57,2.062l1.385,2.4a.122.122,0,0,1-.044.166l-6.031,3.482a.119.119,0,0,1-.121,0L70.22,68.555a.122.122,0,0,0-.166.044l-.733,1.255a3.391,3.391,0,0,1-5.867-3.4l.721-1.249a.122.122,0,0,0-.044-.166l-4.644-2.681a.121.121,0,0,1-.04-.173,22.579,22.579,0,0,1,11.033-7.922,17.072,17.072,0,0,1,7-.5c.888.122,1.691.923.658,1.519L76.1,56.457a2.019,2.019,0,0,0-.823,3.1,2.275,2.275,0,0,0,3.1.814l7.708-4.359A.119.119,0,0,1,86.22,56.023Zm.741,39.75a.119.119,0,0,0,.074-.111l.079-8.855a2.275,2.275,0,0,1,2.254-2.276,2.019,2.019,0,0,1,2.276,2.264v2.351c0,1.193,1.095.9,1.644.19a17.07,17.07,0,0,0,3.068-6.311,22.578,22.578,0,0,0-1.344-13.516.121.121,0,0,0-.17-.052L90.2,72.137a.122.122,0,0,1-.166-.044l-.721-1.249a3.391,3.391,0,0,0-5.879,3.38l.72,1.262a.122.122,0,0,1-.045.165l-4.871,2.812a.119.119,0,0,0-.061.105v6.964a.122.122,0,0,0,.121.121h2.77a2.061,2.061,0,0,1,0,4.122H79.3a.122.122,0,0,0-.121.121v7.251a.121.121,0,0,0,.128.121l1.529-.082a18.255,18.255,0,0,0,6.13-1.417Zm10.947,3.319-10.529.166a.122.122,0,0,0-.12.121v2.276a.121.121,0,0,0,.123.121l10.529-.166a.122.122,0,0,0,.12-.121V99.214A.121.121,0,0,0,97.907,99.092Zm-7.586-8.677c.987,1.687,3.544.772,4.541-.6a18.619,18.619,0,0,0,3.406-13.262.122.122,0,0,1,.168-.127c4.485,1.906,0,14.479-1.4,17.554a6.716,6.716,0,0,0-.426,3.2.122.122,0,0,1-.12.122l-7.8.123a.121.121,0,0,1-.123-.123l.094-10.5a.707.707,0,0,1,.213-.512.718.718,0,0,1,1.223.5v2.777h0A1.661,1.661,0,0,0,90.321,90.415ZM52.165,76.54a.119.119,0,0,0,.059.12l7.629,4.5a2.275,2.275,0,0,1,.844,3.09,2.019,2.019,0,0,1-3.1.839l-2.036-1.175c-1.034-.6-1.325.5-.987,1.329a17.072,17.072,0,0,0,3.932,5.813,22.579,22.579,0,0,0,12.377,5.594.121.121,0,0,0,.13-.121V91.161a.122.122,0,0,1,.121-.121H72.58a3.391,3.391,0,0,0,.012-6.781l-1.453-.008a.122.122,0,0,1-.121-.121V78.505a.119.119,0,0,0-.061-.105l-6.031-3.482a.122.122,0,0,0-.166.044l-1.385,2.4A2.061,2.061,0,0,1,59.8,75.3l.785-1.362h0l.6-1.04a.122.122,0,0,0-.044-.166l-6.28-3.626a.121.121,0,0,0-.169.05L54,70.523a18.25,18.25,0,0,0-1.838,6.017ZM43.817,84.36l5.121-9.2a.122.122,0,0,0-.045-.164l-1.971-1.138a.121.121,0,0,0-.167.046l-5.121,9.2a.122.122,0,0,0,.045.164l1.971,1.138A.121.121,0,0,0,43.817,84.36Zm11.308-2.23c-1.954.011-2.44,2.683-1.751,4.233a18.618,18.618,0,0,0,9.782,9.58.122.122,0,0,1,.026.209c-3.894,2.932-12.542-7.236-14.5-9.989A6.715,6.715,0,0,0,46.125,84.2a.122.122,0,0,1-.046-.165l3.794-6.817a.121.121,0,0,1,.168-.046L59.083,82.5a.707.707,0,0,1,.337.44.718.718,0,0,1-1.047.808l-2.405-1.389v0a1.658,1.658,0,0,0-.844-.225Zm28.5-37.246,5.408,9.035a.122.122,0,0,0,.165.043l1.971-1.138a.121.121,0,0,0,.043-.168L85.8,43.621a.122.122,0,0,0-.165-.043l-1.971,1.138A.121.121,0,0,0,83.62,44.883ZM79.9,55.791a1.66,1.66,0,0,1-.617.618v0L76.876,57.8a.718.718,0,0,0,.176,1.311.707.707,0,0,0,.55-.071l9.136-5.167a.121.121,0,0,0,.044-.168l-4.007-6.695a.122.122,0,0,0-.165-.043,6.715,6.715,0,0,1-2.982,1.229c-3.365.322-16.494,2.728-15.9,7.565a.122.122,0,0,0,.194.082,18.619,18.619,0,0,1,13.188-3.681C78.795,52.336,80.866,54.093,79.9,55.791Z" transform="translate(955.618 1103.358)" fill="#4e5661" fill-rule="evenodd"/>
    <g id="Grupo_1100250" data-name="Grupo 1100250" transform="translate(-2 -64.122)">
      <g id="Grupo_1100249" data-name="Grupo 1100249" transform="translate(568 1299.244)">
        <path id="Trazado_880611" data-name="Trazado 880611" d="M13.177,297.244A13.122,13.122,0,1,0,0,284.068,13.251,13.251,0,0,0,13.177,297.244Zm1.633-18.077h3.267v3.267H14.81Zm-6.534,0h3.267v3.267H8.276Zm1.829,5.978a3.249,3.249,0,0,0,6.142,0l3.1,1.111a6.56,6.56,0,0,1-12.349,0Z" transform="translate(0 -241.489)" fill="#4e5661"/>
        <path id="Trazado_880612" data-name="Trazado 880612" d="M284.068,271a13.122,13.122,0,0,0,0,26.244,13.122,13.122,0,1,0,0-26.244Zm1.633,8.167h3.267v3.267H285.7Zm-6.534,0h3.267v3.267h-3.267Zm7.971,10.356a3.249,3.249,0,0,0-6.142,0l-3.1-1.111a6.56,6.56,0,0,1,12.349,0Z" transform="translate(-241.489 -241.489)" fill="#4e5661"/>
        <path id="Trazado_880613" data-name="Trazado 880613" d="M0,13.177A13.122,13.122,0,1,0,13.177,0,13.251,13.251,0,0,0,0,13.177Zm14.81-4.9h3.267v3.267H14.81Zm-6.534,0h3.267v3.267H8.276Zm0,6.534h9.8v3.267h-9.8Z" fill="#4e5661"/>
        <path id="Trazado_880614" data-name="Trazado 880614" d="M214.267,211v3.267H211v3.267h3.267V220.8h3.267v-3.267H220.8v-3.267h-3.267V211Z" transform="translate(-188.022 -188.022)" fill="#4e5661"/>
        <path id="Trazado_880615" data-name="Trazado 880615" d="M284.068,0a13.122,13.122,0,1,0,13.177,13.177A13.157,13.157,0,0,0,284.068,0Zm-4.9,8.276h3.267v3.267h-3.267Zm2.352,11.271-1.437-2.94,6.534-3.267,1.437,2.94Zm7.449-8H285.7V8.276h3.267Z" transform="translate(-241.489)" fill="#4e5661"/>
      </g>
    </g>
  </g>
</svg>
