<svg xmlns="http://www.w3.org/2000/svg" width="102.99" height="100.386" viewBox="0 0 102.99 100.386">
  <g id="Grupo_1099673" data-name="Grupo 1099673" transform="translate(-915 -213.567)">
    <path id="queja" d="M112.468,84.8a20.058,20.058,0,0,0-22.733-19.87V60.592a26.079,26.079,0,0,0,8.971-8.011,21.061,21.061,0,0,0,3.758-11.9c0-13.073-12.518-23.709-27.905-23.709a31.625,31.625,0,0,0-13.571,3,31.864,31.864,0,0,0-13.6-3C32,16.971,19.481,27.607,19.481,40.68a21.059,21.059,0,0,0,3.758,11.9,26.074,26.074,0,0,0,8.971,8.011v4.339A20.048,20.048,0,0,0,15.352,98.976q.555.556,1.147,1.062a1.489,1.489,0,0,0,.157.132,19.909,19.909,0,0,0,12.683,4.681h.194a19.912,19.912,0,0,0,11.739-3.8,20.055,20.055,0,0,0,39.4,0,19.909,19.909,0,0,0,11.739,3.8h.194a19.908,19.908,0,0,0,12.684-4.681,1.461,1.461,0,0,0,.156-.132q.59-.506,1.146-1.061A19.907,19.907,0,0,0,112.468,84.8Zm-7.939-12.11a17.116,17.116,0,0,1,.529,23.665A13.82,13.82,0,0,0,97.7,89.218a8.38,8.38,0,1,0-10.556,0,13.832,13.832,0,0,0-6.32,5.226,19.877,19.877,0,0,0-5.468-11.1,17.219,17.219,0,0,1,7.563-12.8L85.923,73.1a3.023,3.023,0,0,0,1.846.84,1.812,1.812,0,0,0,.768-.171,2.536,2.536,0,0,0,1.2-2.459V67.881a17.025,17.025,0,0,1,14.794,4.81ZM86.957,82.715a5.46,5.46,0,1,1,5.46,5.46A5.467,5.467,0,0,1,86.957,82.715Zm-37.73-1.66a20.184,20.184,0,0,0-7.9-12.466L46.3,64.375c.4.014.754.02,1.091.02a31.8,31.8,0,0,0,13.6-3,31.617,31.617,0,0,0,13.575,3c.336,0,.686-.006,1.091-.02l4.965,4.214a20.181,20.181,0,0,0-7.9,12.466,20.056,20.056,0,0,0-23.491,0ZM99.545,40.68c0,7.279-4.462,13.909-11.935,17.736a1.46,1.46,0,0,0-.795,1.3V70.024L77.1,61.782a1.46,1.46,0,0,0-.945-.347H76.1c-.621.028-1.1.04-1.537.04-13.774,0-24.98-9.329-24.98-20.8s11.207-20.79,24.98-20.79,24.986,9.326,24.986,20.79Zm-77.144,0c0-11.464,11.209-20.79,24.986-20.79a29.28,29.28,0,0,1,10.37,1.876c-6.736,4.332-11.1,11.2-11.1,18.914S51.02,55.265,57.755,59.6a29.218,29.218,0,0,1-10.368,1.878c-.441,0-.915-.012-1.537-.04a1.453,1.453,0,0,0-1.009.345l-9.71,8.242V59.715a1.459,1.459,0,0,0-.795-1.3C26.863,54.59,22.4,47.959,22.4,40.68ZM12.4,84.8a17.138,17.138,0,0,1,19.814-16.92V71.3a2.536,2.536,0,0,0,1.2,2.459,1.81,1.81,0,0,0,.768.171,3.019,3.019,0,0,0,1.845-.838l3.009-2.554a17.219,17.219,0,0,1,7.563,12.8,19.877,19.877,0,0,0-5.468,11.1,13.832,13.832,0,0,0-6.32-5.226,8.38,8.38,0,1,0-10.556,0,13.82,13.82,0,0,0-7.363,7.139A17,17,0,0,1,12.4,84.8Zm11.67-2.086a5.46,5.46,0,1,1,5.46,5.46A5.467,5.467,0,0,1,24.067,82.715ZM19.194,98.455a10.935,10.935,0,0,1,20.668,0A17.25,17.25,0,0,1,19.194,98.455Zm31.442,12.513a10.934,10.934,0,0,1,20.672,0,17.129,17.129,0,0,1-20.672,0ZM55.512,95.22a5.46,5.46,0,1,1,5.46,5.46A5.467,5.467,0,0,1,55.512,95.22Zm18.1,13.645a13.823,13.823,0,0,0-7.364-7.142,8.38,8.38,0,1,0-10.555,0,13.823,13.823,0,0,0-7.364,7.142,17.13,17.13,0,1,1,25.283,0Zm8.469-10.407a10.935,10.935,0,0,1,20.669,0A17.249,17.249,0,0,1,82.083,98.458ZM31.053,33.021a1.46,1.46,0,0,1,1.46-1.46h8.734a1.46,1.46,0,1,1,0,2.919H32.512a1.46,1.46,0,0,1-1.46-1.46Zm7.742,9.662h-8.35a1.46,1.46,0,1,1,0-2.919h8.35a1.46,1.46,0,1,1,0,2.919Zm3.327,8.2H33.363a1.46,1.46,0,0,1,0-2.919h8.758a1.46,1.46,0,0,1,0,2.919ZM59.23,40.308a15.34,15.34,0,0,0,.3,3.017,1.488,1.488,0,0,0,.048.223,15.336,15.336,0,1,0,.005-6.5,1.446,1.446,0,0,0-.059.28,15.348,15.348,0,0,0-.293,2.982Zm15.33-12.416A12.416,12.416,0,1,1,62.433,42.941V37.675A12.431,12.431,0,0,1,74.559,27.892Zm-7.706,9.361a2.458,2.458,0,1,1,2.458,2.464A2.464,2.464,0,0,1,66.853,37.253Zm10.5,0a2.458,2.458,0,1,1,2.458,2.464A2.464,2.464,0,0,1,77.355,37.253Z" transform="translate(905.522 196.596)" fill="#12263f"/>
    <path id="queja-2" data-name="queja" d="M74.559,41.868A7.145,7.145,0,0,1,81,45.879a1.46,1.46,0,0,1-2.617,1.292,4.259,4.259,0,0,0-7.646,0,1.46,1.46,0,1,1-2.621-1.286,7.22,7.22,0,0,1,6.44-4.014Z" transform="translate(1054.647 287.448) rotate(180)" fill="#12263f"/>
  </g>
</svg>
