<svg xmlns="http://www.w3.org/2000/svg" width="85" height="85" viewBox="0 0 85 85">
  <g id="Layer_9" data-name="Layer 9" transform="translate(-2 -2)">
    <path id="Trazado_873924" data-name="Trazado 873924" d="M22,2H78.667V87H22Z" transform="translate(8.333)" fill="#e2e7f6"/>
    <path id="Trazado_873925" data-name="Trazado 873925" d="M22,2H73V81.333H22Z" transform="translate(8.333)" fill="#f2f2f2"/>
    <path id="Trazado_873926" data-name="Trazado 873926" d="M32,46h8.5V63H32Z" transform="translate(12.5 18.333)" fill="#5e87ca"/>
    <path id="Trazado_873927" data-name="Trazado 873927" d="M36.25,57.333V46H32V58.75h2.833A1.417,1.417,0,0,0,36.25,57.333Z" transform="translate(12.5 18.333)" fill="#78a0d4"/>
    <path id="Trazado_873928" data-name="Trazado 873928" d="M52,34h8.5V68H52Z" transform="translate(20.833 13.333)" fill="#3b5892"/>
    <path id="Trazado_873929" data-name="Trazado 873929" d="M56.25,62.333V34H52V63.75h2.833A1.417,1.417,0,0,0,56.25,62.333Z" transform="translate(20.833 13.333)" fill="#4c6cb5"/>
    <path id="Trazado_873930" data-name="Trazado 873930" d="M42,42h8.5V64.667H42Z" transform="translate(16.667 16.667)" fill="#4c6cb5"/>
    <path id="Trazado_873931" data-name="Trazado 873931" d="M46.25,59V42H42V60.417h2.833A1.417,1.417,0,0,0,46.25,59Z" transform="translate(16.667 16.667)" fill="#5e87ca"/>
    <path id="Trazado_873932" data-name="Trazado 873932" d="M30.5,31l7.327-7.327A13.679,13.679,0,0,0,41.833,14H5a13.68,13.68,0,0,0,4.007,9.673L16.333,31Z" transform="translate(1.25 5)" fill="#f6b940"/>
    <path id="Trazado_873933" data-name="Trazado 873933" d="M31.75,26H17.583l-6.817,6.817A29.931,29.931,0,0,0,8.3,72.355,12.033,12.033,0,0,0,17.8,77H31.533a12.033,12.033,0,0,0,9.492-4.644,29.924,29.924,0,0,0-2.457-39.539Z" transform="translate(0 10)" fill="#f4a93c"/>
    <circle id="Elipse_11543" data-name="Elipse 11543" cx="15.5" cy="15.5" r="15.5" transform="translate(9 49)" fill="#f9d266"/>
    <path id="Trazado_873934" data-name="Trazado 873934" d="M35.335,49.165A15.557,15.557,0,0,0,28.1,36.022a15.568,15.568,0,0,0-13.862,27.7,15.551,15.551,0,0,0,21.1-14.561Z" transform="translate(2.082 13.751)" fill="#fce797"/>
    <path id="Trazado_873935" data-name="Trazado 873935" d="M25.333,46.5V45.083a4.25,4.25,0,0,0-4.25-4.25V38H18.25v2.833A4.25,4.25,0,0,0,14,45.083V46.5a4.25,4.25,0,0,0,4.25,4.25V55a1.417,1.417,0,0,1-1.417-1.417V52.167H14v1.417a4.25,4.25,0,0,0,4.25,4.25v2.833h2.833V57.833a4.25,4.25,0,0,0,4.25-4.25V52.167a4.25,4.25,0,0,0-4.25-4.25v-4.25A1.417,1.417,0,0,1,22.5,45.083V46.5ZM22.5,52.167v1.417A1.417,1.417,0,0,1,21.083,55V50.75A1.417,1.417,0,0,1,22.5,52.167Zm-4.25-4.25A1.417,1.417,0,0,1,16.833,46.5V45.083a1.417,1.417,0,0,1,1.417-1.417Z" transform="translate(5 15)" fill="#f4a93c"/>
    <path id="Trazado_873936" data-name="Trazado 873936" d="M32,34.833,46.167,20.667l5.667,5.667,8.5-8.5L57.5,15H68.833V26.333L66,23.5,53.25,36.25l-5.667-5.667L37.667,40.5Z" transform="translate(12.5 5.417)" fill="#4e5661"/>
    <g id="Grupo_1099981" data-name="Grupo 1099981" transform="translate(34.583 6.25)">
      <path id="Trazado_873937" data-name="Trazado 873937" d="M25,5H42V7.833H25Z" transform="translate(-25 -5)" fill="#c8cded"/>
      <path id="Trazado_873938" data-name="Trazado 873938" d="M39,5h2.833V7.833H39Z" transform="translate(-19.167 -5)" fill="#c8cded"/>
      <path id="Trazado_873939" data-name="Trazado 873939" d="M25,9H42v2.833H25Z" transform="translate(-25 -3.333)" fill="#c8cded"/>
      <path id="Trazado_873940" data-name="Trazado 873940" d="M39,9h2.833v2.833H39Z" transform="translate(-19.167 -3.333)" fill="#c8cded"/>
    </g>
    <path id="Trazado_873941" data-name="Trazado 873941" d="M18.219,28.1A22.677,22.677,0,0,1,15.833,18H13a25.552,25.552,0,0,0,2.668,11.333h3.166Z" transform="translate(4.583 6.667)" fill="#f9d266"/>
    <path id="Trazado_873942" data-name="Trazado 873942" d="M18.882,29.333h3.166A25.552,25.552,0,0,0,24.716,18H21.882A22.677,22.677,0,0,1,19.5,28.1Z" transform="translate(7.034 6.667)" fill="#f9d266"/>
  </g>
</svg>
