<svg xmlns="http://www.w3.org/2000/svg" width="420" height="47" viewBox="0 0 420 47">
  <g id="Grupo_1100257" data-name="Grupo 1100257" transform="translate(-180 -1982.205)">
    <rect id="Rectángulo_401216" data-name="Rectángulo 401216" width="420" height="35" rx="17.5" transform="translate(180 1990.205)" fill="#e7effa"/>
    <path id="Trazado_880684" data-name="Trazado 880684" d="M5.576,4.781,8.75,14.674l3.164-9.893h4.512V19H12.988V15.68l.332-6.8L9.883,19H7.617L4.17,8.873,4.5,15.68V19H1.074V4.781ZM24.4,19a3.716,3.716,0,0,1-.312-.947A3.06,3.06,0,0,1,21.553,19.2a3.749,3.749,0,0,1-2.539-.9,2.875,2.875,0,0,1-1.045-2.271,2.955,2.955,0,0,1,1.27-2.6,6.468,6.468,0,0,1,3.691-.879h1.016v-.559q0-1.462-1.26-1.462a1.03,1.03,0,0,0-1.172,1.158H18.223a2.95,2.95,0,0,1,1.3-2.487,5.479,5.479,0,0,1,3.325-.956,4.8,4.8,0,0,1,3.193.986,3.429,3.429,0,0,1,1.2,2.705v4.678a4.79,4.79,0,0,0,.449,2.227V19Zm-2.061-2.148a1.836,1.836,0,0,0,1.021-.264,1.653,1.653,0,0,0,.581-.6V14.3h-.957q-1.719,0-1.719,1.543a.942.942,0,0,0,.3.728A1.1,1.1,0,0,0,22.344,16.852ZM32.9,5.807V8.434h1.738v2.285H32.9v4.834a1.234,1.234,0,0,0,.215.83,1.152,1.152,0,0,0,.85.234,4.828,4.828,0,0,0,.82-.059v2.354a6.074,6.074,0,0,1-1.855.283,3.448,3.448,0,0,1-2.51-.8,3.282,3.282,0,0,1-.811-2.432V10.719H28.262V8.434h1.348V5.807Zm9.424,5.605-1.084-.078a1.947,1.947,0,0,0-1.992.977V19H35.957V8.434h3.086l.107,1.357a2.548,2.548,0,0,1,2.314-1.553,3.209,3.209,0,0,1,.918.117ZM46.982,19h-3.3V8.434h3.3Zm-3.5-13.291a1.469,1.469,0,0,1,.508-1.152,2.159,2.159,0,0,1,2.637,0,1.469,1.469,0,0,1,.508,1.152,1.469,1.469,0,0,1-.508,1.152,2.159,2.159,0,0,1-2.637,0A1.469,1.469,0,0,1,43.486,5.709Zm9.4,10.752h4.814V19H48.73V17.164l4.688-6.191H48.936V8.434H57.6v1.777Zm10.977-2.822a6.455,6.455,0,0,1,1.084-3.955,3.568,3.568,0,0,1,3.027-1.445,3.035,3.035,0,0,1,2.383,1.113V4h3.3V19H70.7l-.166-1.133A3.116,3.116,0,0,1,67.959,19.2a3.562,3.562,0,0,1-2.988-1.445A6.659,6.659,0,0,1,63.867,13.639Zm3.291.205q0,2.813,1.641,2.813a1.62,1.62,0,0,0,1.563-.918V11.715a1.576,1.576,0,0,0-1.543-.937q-1.523,0-1.65,2.461ZM80.645,19.2a5.432,5.432,0,0,1-3.936-1.45,5.008,5.008,0,0,1-1.5-3.774V13.7a6.489,6.489,0,0,1,.6-2.861,4.395,4.395,0,0,1,1.753-1.919,5.292,5.292,0,0,1,2.734-.679A4.574,4.574,0,0,1,83.809,9.62,5.43,5.43,0,0,1,85.1,13.473v1.279H78.555a2.372,2.372,0,0,0,.771,1.4,2.3,2.3,0,0,0,1.543.508,2.958,2.958,0,0,0,2.441-1.094l1.5,1.777a4.2,4.2,0,0,1-1.743,1.353A5.891,5.891,0,0,1,80.645,19.2Zm-.371-8.418q-1.445,0-1.719,1.914h3.32v-.254a1.63,1.63,0,0,0-.4-1.226A1.593,1.593,0,0,0,80.273,10.777ZM103.428,19H100.02L94.98,10.152V19H91.553V4.781H94.98l5.029,8.848V4.781h3.418Zm7.129.2a5.432,5.432,0,0,1-3.936-1.45,5.008,5.008,0,0,1-1.5-3.774V13.7a6.489,6.489,0,0,1,.6-2.861,4.395,4.395,0,0,1,1.753-1.919,5.292,5.292,0,0,1,2.734-.679,4.574,4.574,0,0,1,3.516,1.382,5.43,5.43,0,0,1,1.289,3.853v1.279h-6.543a2.372,2.372,0,0,0,.771,1.4,2.3,2.3,0,0,0,1.543.508,2.958,2.958,0,0,0,2.441-1.094l1.5,1.777a4.2,4.2,0,0,1-1.743,1.353A5.891,5.891,0,0,1,110.557,19.2Zm-.371-8.418q-1.445,0-1.719,1.914h3.32v-.254a1.63,1.63,0,0,0-.4-1.226A1.593,1.593,0,0,0,110.186,10.777ZM120.8,16.656a1.464,1.464,0,0,0,1.074-.376,1.379,1.379,0,0,0,.371-1.05h3.086a3.653,3.653,0,0,1-1.245,2.852,4.631,4.631,0,0,1-3.208,1.113,4.689,4.689,0,0,1-3.633-1.445,5.7,5.7,0,0,1-1.328-4v-.137a6.436,6.436,0,0,1,.591-2.827,4.3,4.3,0,0,1,1.7-1.885,5.081,5.081,0,0,1,2.637-.659,4.573,4.573,0,0,1,3.271,1.143,4.053,4.053,0,0,1,1.211,3.1h-3.086a1.806,1.806,0,0,0-.4-1.26,1.382,1.382,0,0,0-1.074-.439q-1.279,0-1.494,1.631a11.508,11.508,0,0,0-.068,1.426,4.52,4.52,0,0,0,.381,2.207A1.319,1.319,0,0,0,120.8,16.656ZM131.836,19.2a5.432,5.432,0,0,1-3.936-1.45,5.008,5.008,0,0,1-1.5-3.774V13.7a6.489,6.489,0,0,1,.6-2.861,4.395,4.395,0,0,1,1.753-1.919,5.292,5.292,0,0,1,2.734-.679A4.574,4.574,0,0,1,135,9.62a5.43,5.43,0,0,1,1.289,3.853v1.279h-6.543a2.372,2.372,0,0,0,.771,1.4,2.3,2.3,0,0,0,1.543.508,2.958,2.958,0,0,0,2.441-1.094l1.5,1.777a4.2,4.2,0,0,1-1.743,1.353A5.891,5.891,0,0,1,131.836,19.2Zm-.371-8.418q-1.445,0-1.719,1.914h3.32v-.254a1.63,1.63,0,0,0-.4-1.226A1.593,1.593,0,0,0,131.465,10.777Zm11.68,5.254a.76.76,0,0,0-.439-.674,6.685,6.685,0,0,0-1.67-.527A7.615,7.615,0,0,1,139,14.112a3.4,3.4,0,0,1-1.221-1.079,2.577,2.577,0,0,1-.42-1.455,2.92,2.92,0,0,1,1.2-2.4,4.948,4.948,0,0,1,3.145-.942,5.482,5.482,0,0,1,3.359.947,2.962,2.962,0,0,1,1.27,2.49h-3.3q0-1.27-1.338-1.27a1.326,1.326,0,0,0-.869.288.892.892,0,0,0-.352.718.819.819,0,0,0,.43.713,4.06,4.06,0,0,0,1.372.449,11.857,11.857,0,0,1,1.655.42,3.007,3.007,0,0,1,2.383,2.939,2.767,2.767,0,0,1-1.284,2.354,5.632,5.632,0,0,1-3.325.908,5.747,5.747,0,0,1-2.422-.488,4.05,4.05,0,0,1-1.66-1.328,3.007,3.007,0,0,1-.6-1.768h3.076a1.272,1.272,0,0,0,.488,1.069,2.009,2.009,0,0,0,1.2.337,1.58,1.58,0,0,0,1.011-.273A.875.875,0,0,0,143.145,16.031ZM151.328,19h-3.3V8.434h3.3Zm-3.5-13.291a1.469,1.469,0,0,1,.508-1.152,2.159,2.159,0,0,1,2.637,0,1.469,1.469,0,0,1,.508,1.152,1.469,1.469,0,0,1-.508,1.152,2.159,2.159,0,0,1-2.637,0A1.469,1.469,0,0,1,147.832,5.709Zm5.107,7.93a6.455,6.455,0,0,1,1.084-3.955,3.568,3.568,0,0,1,3.027-1.445,3.035,3.035,0,0,1,2.383,1.113V4h3.3V19h-2.959l-.166-1.133a3.116,3.116,0,0,1-2.578,1.328,3.562,3.562,0,0,1-2.988-1.445A6.659,6.659,0,0,1,152.939,13.639Zm3.291.205q0,2.813,1.641,2.813a1.62,1.62,0,0,0,1.563-.918V11.715a1.576,1.576,0,0,0-1.543-.937q-1.523,0-1.65,2.461ZM170.557,19a3.716,3.716,0,0,1-.312-.947,3.06,3.06,0,0,1-2.539,1.143,3.749,3.749,0,0,1-2.539-.9,2.875,2.875,0,0,1-1.045-2.271,2.955,2.955,0,0,1,1.27-2.6,6.468,6.468,0,0,1,3.691-.879H170.1v-.559q0-1.462-1.26-1.462a1.03,1.03,0,0,0-1.172,1.158h-3.291a2.95,2.95,0,0,1,1.3-2.487A5.479,5.479,0,0,1,169,8.238a4.8,4.8,0,0,1,3.193.986,3.429,3.429,0,0,1,1.2,2.705v4.678a4.79,4.79,0,0,0,.449,2.227V19ZM168.5,16.852a1.836,1.836,0,0,0,1.021-.264,1.653,1.653,0,0,0,.581-.6V14.3h-.957q-1.719,0-1.719,1.543a.942.942,0,0,0,.3.728A1.1,1.1,0,0,0,168.5,16.852Zm6.309-3.213a6.455,6.455,0,0,1,1.084-3.955,3.568,3.568,0,0,1,3.027-1.445A3.035,3.035,0,0,1,181.3,9.352V4h3.3V19h-2.959l-.166-1.133A3.116,3.116,0,0,1,178.9,19.2a3.562,3.562,0,0,1-2.988-1.445A6.659,6.659,0,0,1,174.8,13.639Zm3.291.205q0,2.813,1.641,2.813a1.62,1.62,0,0,0,1.563-.918V11.715a1.576,1.576,0,0,0-1.543-.937q-1.523,0-1.65,2.461ZM191.582,19.2a5.432,5.432,0,0,1-3.936-1.45,5.008,5.008,0,0,1-1.5-3.774V13.7a6.489,6.489,0,0,1,.6-2.861A4.395,4.395,0,0,1,188.5,8.917a5.292,5.292,0,0,1,2.734-.679,4.574,4.574,0,0,1,3.516,1.382,5.43,5.43,0,0,1,1.289,3.853v1.279h-6.543a2.372,2.372,0,0,0,.771,1.4,2.3,2.3,0,0,0,1.543.508,2.958,2.958,0,0,0,2.441-1.094l1.5,1.777a4.2,4.2,0,0,1-1.743,1.353A5.891,5.891,0,0,1,191.582,19.2Zm-.371-8.418q-1.445,0-1.719,1.914h3.32v-.254a1.63,1.63,0,0,0-.4-1.226A1.593,1.593,0,0,0,191.211,10.777Zm11.68,5.254a.76.76,0,0,0-.439-.674,6.685,6.685,0,0,0-1.67-.527,7.615,7.615,0,0,1-2.031-.718,3.4,3.4,0,0,1-1.221-1.079,2.577,2.577,0,0,1-.42-1.455,2.92,2.92,0,0,1,1.2-2.4,4.948,4.948,0,0,1,3.145-.942,5.482,5.482,0,0,1,3.359.947,2.962,2.962,0,0,1,1.27,2.49h-3.3q0-1.27-1.338-1.27a1.326,1.326,0,0,0-.869.288.892.892,0,0,0-.352.718.819.819,0,0,0,.43.713,4.06,4.06,0,0,0,1.372.449,11.857,11.857,0,0,1,1.655.42,3.007,3.007,0,0,1,2.383,2.939,2.767,2.767,0,0,1-1.284,2.354,5.632,5.632,0,0,1-3.325.908,5.747,5.747,0,0,1-2.422-.488,4.05,4.05,0,0,1-1.66-1.328,3.007,3.007,0,0,1-.6-1.768h3.076a1.272,1.272,0,0,0,.488,1.069,2.009,2.009,0,0,0,1.2.337,1.58,1.58,0,0,0,1.011-.273A.875.875,0,0,0,202.891,16.031Zm13.916-1.641,1.758-5.957h3.525l-4.307,12.334-.186.449a3.272,3.272,0,0,1-3.242,2.051A5.158,5.158,0,0,1,213,23.073V20.729h.43a2.251,2.251,0,0,0,1.06-.2,1.216,1.216,0,0,0,.542-.718l.264-.7L211.621,8.434h3.516Zm18.6.83a1.408,1.408,0,0,0-.532-1.172,6.615,6.615,0,0,0-1.87-.869,17.942,17.942,0,0,1-2.187-.869q-2.764-1.357-2.764-3.73a3.345,3.345,0,0,1,.688-2.085,4.453,4.453,0,0,1,1.948-1.406,7.582,7.582,0,0,1,2.832-.5,6.632,6.632,0,0,1,2.749.547,4.352,4.352,0,0,1,1.89,1.558A4.068,4.068,0,0,1,238.838,9H235.42a1.719,1.719,0,0,0-.532-1.348,2.075,2.075,0,0,0-1.44-.479,2.339,2.339,0,0,0-1.45.405,1.193,1.193,0,0,0,.054,2.021,7.389,7.389,0,0,0,2.061.918,12.623,12.623,0,0,1,2.422,1.021,4.07,4.07,0,0,1,2.3,3.662,3.472,3.472,0,0,1-1.406,2.93,6.255,6.255,0,0,1-3.857,1.064,7.653,7.653,0,0,1-3.13-.62,4.719,4.719,0,0,1-2.109-1.7,4.428,4.428,0,0,1-.708-2.485h3.438a2.181,2.181,0,0,0,.591,1.685,2.793,2.793,0,0,0,1.919.542,2.206,2.206,0,0,0,1.343-.366A1.209,1.209,0,0,0,235.41,15.221ZM246.4,19a3.716,3.716,0,0,1-.312-.947,3.06,3.06,0,0,1-2.539,1.143,3.749,3.749,0,0,1-2.539-.9,2.875,2.875,0,0,1-1.045-2.271,2.955,2.955,0,0,1,1.27-2.6,6.468,6.468,0,0,1,3.691-.879h1.016v-.559q0-1.462-1.26-1.462a1.03,1.03,0,0,0-1.172,1.158h-3.291a2.95,2.95,0,0,1,1.3-2.487,5.479,5.479,0,0,1,3.325-.956,4.8,4.8,0,0,1,3.193.986,3.429,3.429,0,0,1,1.2,2.705v4.678a4.79,4.79,0,0,0,.449,2.227V19Zm-2.061-2.148a1.836,1.836,0,0,0,1.021-.264,1.653,1.653,0,0,0,.581-.6V14.3h-.957q-1.719,0-1.719,1.543a.942.942,0,0,0,.3.728A1.1,1.1,0,0,0,244.336,16.852ZM254.893,5.807V8.434h1.738v2.285h-1.738v4.834a1.234,1.234,0,0,0,.215.83,1.152,1.152,0,0,0,.85.234,4.828,4.828,0,0,0,.82-.059v2.354a6.074,6.074,0,0,1-1.855.283,3.448,3.448,0,0,1-2.51-.8,3.282,3.282,0,0,1-.811-2.432V10.719h-1.348V8.434H251.6V5.807ZM261.4,19h-3.3V8.434h3.3ZM257.9,5.709a1.469,1.469,0,0,1,.508-1.152,2.159,2.159,0,0,1,2.637,0,1.469,1.469,0,0,1,.508,1.152,1.469,1.469,0,0,1-.508,1.152,2.159,2.159,0,0,1-2.637,0A1.469,1.469,0,0,1,257.9,5.709Zm11.055,10.322a.76.76,0,0,0-.439-.674,6.685,6.685,0,0,0-1.67-.527,7.615,7.615,0,0,1-2.031-.718,3.4,3.4,0,0,1-1.221-1.079,2.577,2.577,0,0,1-.42-1.455,2.92,2.92,0,0,1,1.2-2.4,4.948,4.948,0,0,1,3.145-.942,5.482,5.482,0,0,1,3.359.947,2.962,2.962,0,0,1,1.27,2.49h-3.3q0-1.27-1.338-1.27a1.326,1.326,0,0,0-.869.288.892.892,0,0,0-.352.718.819.819,0,0,0,.43.713,4.06,4.06,0,0,0,1.372.449,11.856,11.856,0,0,1,1.655.42,3.007,3.007,0,0,1,2.383,2.939,2.767,2.767,0,0,1-1.284,2.354,5.631,5.631,0,0,1-3.325.908,5.747,5.747,0,0,1-2.422-.488,4.05,4.05,0,0,1-1.66-1.328,3.007,3.007,0,0,1-.6-1.768h3.076a1.272,1.272,0,0,0,.488,1.069,2.009,2.009,0,0,0,1.2.337,1.58,1.58,0,0,0,1.011-.273A.875.875,0,0,0,268.955,16.031ZM274.395,19V10.719h-1.533V8.434h1.533v-.84a3.651,3.651,0,0,1,1.064-2.8,4.206,4.206,0,0,1,2.988-1A6.544,6.544,0,0,1,279.99,4L280,6.422a3.007,3.007,0,0,0-.811-.088q-1.494,0-1.494,1.289v.811h2.061v2.285H277.7V19Zm12.471,0a3.716,3.716,0,0,1-.312-.947,3.06,3.06,0,0,1-2.539,1.143,3.749,3.749,0,0,1-2.539-.9,2.875,2.875,0,0,1-1.045-2.271,2.955,2.955,0,0,1,1.27-2.6,6.468,6.468,0,0,1,3.691-.879h1.016v-.559q0-1.462-1.26-1.462a1.03,1.03,0,0,0-1.172,1.158h-3.291a2.95,2.95,0,0,1,1.3-2.487,5.479,5.479,0,0,1,3.325-.956,4.8,4.8,0,0,1,3.193.986,3.429,3.429,0,0,1,1.2,2.705v4.678a4.79,4.79,0,0,0,.449,2.227V19ZM284.8,16.852a1.836,1.836,0,0,0,1.021-.264,1.653,1.653,0,0,0,.581-.6V14.3h-.957q-1.719,0-1.719,1.543a.942.942,0,0,0,.3.728A1.1,1.1,0,0,0,284.8,16.852Zm11.191-.2a1.464,1.464,0,0,0,1.074-.376,1.379,1.379,0,0,0,.371-1.05h3.086a3.653,3.653,0,0,1-1.245,2.852,4.631,4.631,0,0,1-3.208,1.113,4.689,4.689,0,0,1-3.633-1.445,5.7,5.7,0,0,1-1.328-4v-.137a6.436,6.436,0,0,1,.591-2.827,4.3,4.3,0,0,1,1.7-1.885,5.081,5.081,0,0,1,2.637-.659,4.573,4.573,0,0,1,3.271,1.143,4.053,4.053,0,0,1,1.211,3.1h-3.086a1.806,1.806,0,0,0-.4-1.26,1.382,1.382,0,0,0-1.074-.439q-1.279,0-1.494,1.631a11.51,11.51,0,0,0-.068,1.426,4.52,4.52,0,0,0,.381,2.207A1.319,1.319,0,0,0,296,16.656Zm9.756-10.85V8.434h1.738v2.285h-1.738v4.834a1.234,1.234,0,0,0,.215.83,1.152,1.152,0,0,0,.85.234,4.828,4.828,0,0,0,.82-.059v2.354a6.074,6.074,0,0,1-1.855.283,3.448,3.448,0,0,1-2.51-.8,3.282,3.282,0,0,1-.811-2.432V10.719h-1.348V8.434h1.348V5.807Zm2.324,7.813a6.236,6.236,0,0,1,.615-2.817,4.4,4.4,0,0,1,1.768-1.9,5.323,5.323,0,0,1,2.705-.664,4.859,4.859,0,0,1,3.74,1.47,5.64,5.64,0,0,1,1.367,4v.117a5.472,5.472,0,0,1-1.372,3.921,4.871,4.871,0,0,1-3.716,1.45,4.927,4.927,0,0,1-3.623-1.353,5.29,5.29,0,0,1-1.475-3.667Zm3.291.205a3.931,3.931,0,0,0,.459,2.148,1.529,1.529,0,0,0,1.357.684q1.758,0,1.8-2.705v-.332q0-2.842-1.816-2.842-1.65,0-1.787,2.451Zm14.746-2.412-1.084-.078a1.947,1.947,0,0,0-1.992.977V19h-3.291V8.434h3.086l.107,1.357a2.548,2.548,0,0,1,2.314-1.553,3.209,3.209,0,0,1,.918.117Zm6.113,7.783a5.432,5.432,0,0,1-3.936-1.45,5.008,5.008,0,0,1-1.5-3.774V13.7a6.489,6.489,0,0,1,.6-2.861,4.395,4.395,0,0,1,1.753-1.919,5.292,5.292,0,0,1,2.734-.679,4.574,4.574,0,0,1,3.516,1.382,5.43,5.43,0,0,1,1.289,3.853v1.279h-6.543a2.372,2.372,0,0,0,.771,1.4,2.3,2.3,0,0,0,1.543.508,2.958,2.958,0,0,0,2.441-1.094l1.5,1.777a4.2,4.2,0,0,1-1.743,1.353A5.891,5.891,0,0,1,332.227,19.2Zm-.371-8.418q-1.445,0-1.719,1.914h3.32v-.254a1.63,1.63,0,0,0-.4-1.226A1.593,1.593,0,0,0,331.855,10.777Zm11.68,5.254a.76.76,0,0,0-.439-.674,6.685,6.685,0,0,0-1.67-.527,7.615,7.615,0,0,1-2.031-.718,3.4,3.4,0,0,1-1.221-1.079,2.577,2.577,0,0,1-.42-1.455,2.92,2.92,0,0,1,1.2-2.4,4.948,4.948,0,0,1,3.145-.942,5.482,5.482,0,0,1,3.359.947,2.962,2.962,0,0,1,1.27,2.49h-3.3q0-1.27-1.338-1.27a1.326,1.326,0,0,0-.869.288.892.892,0,0,0-.352.718.819.819,0,0,0,.43.713,4.06,4.06,0,0,0,1.372.449,11.856,11.856,0,0,1,1.655.42,3.007,3.007,0,0,1,2.383,2.939,2.767,2.767,0,0,1-1.284,2.354,5.631,5.631,0,0,1-3.325.908,5.747,5.747,0,0,1-2.422-.488,4.05,4.05,0,0,1-1.66-1.328,3.007,3.007,0,0,1-.6-1.768H340.5a1.272,1.272,0,0,0,.488,1.069,2.009,2.009,0,0,0,1.2.337,1.58,1.58,0,0,0,1.011-.273A.875.875,0,0,0,343.535,16.031Z" transform="translate(237 1994.205)" fill="#12263f"/>
    <circle id="Elipse_11541" data-name="Elipse 11541" cx="23.5" cy="23.5" r="23.5" transform="translate(180 1982.205)" fill="#3d5756"/>
    <path id="plane-up-solid" d="M10.958,5.348C10.958,3.4,12.614,0,14.611,0c2.055,0,3.653,3.4,3.653,5.348V9.132L28.412,15.9a1.819,1.819,0,0,1,.81,1.518V20.65a.917.917,0,0,1-1.2.868l-9.754-3.253V22.83L21.552,25.3a.919.919,0,0,1,.365.731v2.4a.8.8,0,0,1-.8.8.992.992,0,0,1-.223-.029l-6.284-1.8-6.284,1.8a.746.746,0,0,1-.223.029.8.8,0,0,1-.8-.8v-2.4a.919.919,0,0,1,.365-.731l3.288-2.466V18.264L1.2,21.517A.917.917,0,0,1,0,20.65V17.414A1.819,1.819,0,0,1,.81,15.9L10.958,9.132Z" transform="translate(189 1991.205)" fill="#e7effa"/>
  </g>
</svg>
